<svg xmlns="http://www.w3.org/2000/svg" width="1000" height="172" viewBox="0 0 1000 172">
<rect width="1000" height="172" fill="white"/>
<text x="60" y="24" font-family="sans-serif" font-size="15">KDM5A intragenic-deletion schematic</text>
<text x="60" y="40" font-family="sans-serif" font-size="10" fill="#555">retained N-terminal block → deleted span (plain connector) → resumed C-terminal block</text>
<rect x="60.0" y="56.0" width="320.1" height="22" fill="#e2e2e2"/>
<rect x="66.6" y="56.0" width="10.9" height="22" fill="#2878b5"/>
<rect x="87.2" y="56.0" width="29.2" height="22" fill="#2878b5"/>
<text x="101.8" y="70.0" font-family="sans-serif" font-size="7" text-anchor="middle" fill="#111111" stroke="white" stroke-width="2" paint-order="stroke">ARID/B…</text>
<rect x="305.2" y="56.0" width="74.9" height="22" fill="#f2a93b"/>
<text x="342.7" y="70.0" font-family="sans-serif" font-size="7" text-anchor="middle" fill="#111111" stroke="white" stroke-width="2" paint-order="stroke">PLU-1-like protein</text>
<rect x="284.0" y="56.0" width="17.6" height="22" fill="#2878b5"/>
<text x="292.8" y="70.0" font-family="sans-serif" font-size="7" text-anchor="middle" fill="#111111" stroke="white" stroke-width="2" paint-order="stroke">C5H…</text>
<rect x="157.8" y="56.0" width="15.6" height="22" fill="#2878b5"/>
<text x="165.5" y="70.0" font-family="sans-serif" font-size="7" text-anchor="middle" fill="#111111" stroke="white" stroke-width="2" paint-order="stroke">PH…</text>
<rect x="215.7" y="56.0" width="38.4" height="22" fill="#2878b5"/>
<text x="235.0" y="70.0" font-family="sans-serif" font-size="7" text-anchor="middle" fill="#111111" stroke="white" stroke-width="2" paint-order="stroke">JmjC dom…</text>
<line x1="60.3" y1="56.0" x2="60.3" y2="78.0" stroke="#555555" stroke-width="0.6" opacity="0.6"/>
<line x1="78.6" y1="56.0" x2="78.6" y2="78.0" stroke="#555555" stroke-width="0.6" opacity="0.6"/>
<line x1="87.2" y1="56.0" x2="87.2" y2="78.0" stroke="#555555" stroke-width="0.6" opacity="0.6"/>
<line x1="100.8" y1="56.0" x2="100.8" y2="78.0" stroke="#555555" stroke-width="0.6" opacity="0.6"/>
<line x1="119.6" y1="56.0" x2="119.6" y2="78.0" stroke="#555555" stroke-width="0.6" opacity="0.6"/>
<line x1="134.6" y1="56.0" x2="134.6" y2="78.0" stroke="#555555" stroke-width="0.6" opacity="0.6"/>
<line x1="146.2" y1="56.0" x2="146.2" y2="78.0" stroke="#555555" stroke-width="0.6" opacity="0.6"/>
<line x1="156.4" y1="56.0" x2="156.4" y2="78.0" stroke="#555555" stroke-width="0.6" opacity="0.6"/>
<line x1="174.0" y1="56.0" x2="174.0" y2="78.0" stroke="#555555" stroke-width="0.6" opacity="0.6"/>
<line x1="187.2" y1="56.0" x2="187.2" y2="78.0" stroke="#555555" stroke-width="0.6" opacity="0.6"/>
<line x1="204.8" y1="56.0" x2="204.8" y2="78.0" stroke="#555555" stroke-width="0.6" opacity="0.6"/>
<line x1="224.7" y1="56.0" x2="224.7" y2="78.0" stroke="#555555" stroke-width="0.6" opacity="0.6"/>
<line x1="242.9" y1="56.0" x2="242.9" y2="78.0" stroke="#555555" stroke-width="0.6" opacity="0.6"/>
<line x1="256.2" y1="56.0" x2="256.2" y2="78.0" stroke="#555555" stroke-width="0.6" opacity="0.6"/>
<line x1="277.7" y1="56.0" x2="277.7" y2="78.0" stroke="#555555" stroke-width="0.6" opacity="0.6"/>
<line x1="297.6" y1="56.0" x2="297.6" y2="78.0" stroke="#555555" stroke-width="0.6" opacity="0.6"/>
<line x1="311.5" y1="56.0" x2="311.5" y2="78.0" stroke="#555555" stroke-width="0.6" opacity="0.6"/>
<line x1="328.1" y1="56.0" x2="328.1" y2="78.0" stroke="#555555" stroke-width="0.6" opacity="0.6"/>
<line x1="341.0" y1="56.0" x2="341.0" y2="78.0" stroke="#555555" stroke-width="0.6" opacity="0.6"/>
<rect x="415.6" y="56.0" width="204.4" height="22" fill="#e2e2e2"/>
<rect x="445.4" y="56.0" width="17.9" height="22" fill="#2878b5"/>
<text x="454.3" y="70.0" font-family="sans-serif" font-size="7" text-anchor="middle" fill="#111111" stroke="white" stroke-width="2" paint-order="stroke">PHD…</text>
<line x1="433.4" y1="56.0" x2="433.4" y2="78.0" stroke="#555555" stroke-width="0.6" opacity="0.6"/>
<line x1="494.4" y1="56.0" x2="494.4" y2="78.0" stroke="#555555" stroke-width="0.6" opacity="0.6"/>
<line x1="510.3" y1="56.0" x2="510.3" y2="78.0" stroke="#555555" stroke-width="0.6" opacity="0.6"/>
<line x1="527.9" y1="56.0" x2="527.9" y2="78.0" stroke="#555555" stroke-width="0.6" opacity="0.6"/>
<line x1="552.4" y1="56.0" x2="552.4" y2="78.0" stroke="#555555" stroke-width="0.6" opacity="0.6"/>
<line x1="597.8" y1="56.0" x2="597.8" y2="78.0" stroke="#555555" stroke-width="0.6" opacity="0.6"/>
<line x1="380.1" y1="67.0" x2="415.6" y2="67.0" stroke="#999999" stroke-width="1.5" stroke-dasharray="3,2"/>
<text x="660" y="70.5" font-family="sans-serif" font-size="9.5">2-exon deletion (out-of-frame)</text>
<line x1="60.0" y1="86.0" x2="620.0" y2="86.0" stroke="#444444" stroke-width="1"/>
<text x="60.0" y="100.0" font-family="sans-serif" font-size="9">1</text>
<text x="620.0" y="100.0" font-family="sans-serif" font-size="9" text-anchor="end">1690 aa</text>
<line x1="60.3" y1="104.0" x2="60.3" y2="108.0" stroke="#777777" stroke-width="0.7"/>
<text x="60.3" y="109.0" font-family="sans-serif" font-size="5.5" fill="#666666" transform="rotate(55 60.3 109.0)">E1</text>
<line x1="78.6" y1="104.0" x2="78.6" y2="108.0" stroke="#777777" stroke-width="0.7"/>
<text x="78.6" y="109.0" font-family="sans-serif" font-size="5.5" fill="#666666" transform="rotate(55 78.6 109.0)">E2</text>
<line x1="87.2" y1="104.0" x2="87.2" y2="108.0" stroke="#777777" stroke-width="0.7"/>
<text x="87.2" y="109.0" font-family="sans-serif" font-size="5.5" fill="#666666" transform="rotate(55 87.2 109.0)">E3</text>
<line x1="100.8" y1="104.0" x2="100.8" y2="108.0" stroke="#777777" stroke-width="0.7"/>
<text x="100.8" y="109.0" font-family="sans-serif" font-size="5.5" fill="#666666" transform="rotate(55 100.8 109.0)">E4</text>
<line x1="119.6" y1="104.0" x2="119.6" y2="108.0" stroke="#777777" stroke-width="0.7"/>
<text x="119.6" y="109.0" font-family="sans-serif" font-size="5.5" fill="#666666" transform="rotate(55 119.6 109.0)">E5</text>
<line x1="134.6" y1="104.0" x2="134.6" y2="108.0" stroke="#777777" stroke-width="0.7"/>
<text x="134.6" y="109.0" font-family="sans-serif" font-size="5.5" fill="#666666" transform="rotate(55 134.6 109.0)">E6</text>
<line x1="146.2" y1="104.0" x2="146.2" y2="108.0" stroke="#777777" stroke-width="0.7"/>
<text x="146.2" y="109.0" font-family="sans-serif" font-size="5.5" fill="#666666" transform="rotate(55 146.2 109.0)">E7</text>
<line x1="156.4" y1="104.0" x2="156.4" y2="108.0" stroke="#777777" stroke-width="0.7"/>
<text x="156.4" y="109.0" font-family="sans-serif" font-size="5.5" fill="#666666" transform="rotate(55 156.4 109.0)">E8</text>
<line x1="174.0" y1="104.0" x2="174.0" y2="108.0" stroke="#777777" stroke-width="0.7"/>
<text x="174.0" y="109.0" font-family="sans-serif" font-size="5.5" fill="#666666" transform="rotate(55 174.0 109.0)">E9</text>
<line x1="187.2" y1="104.0" x2="187.2" y2="108.0" stroke="#777777" stroke-width="0.7"/>
<text x="187.2" y="109.0" font-family="sans-serif" font-size="5.5" fill="#666666" transform="rotate(55 187.2 109.0)">E10</text>
<line x1="204.8" y1="104.0" x2="204.8" y2="108.0" stroke="#777777" stroke-width="0.7"/>
<text x="204.8" y="109.0" font-family="sans-serif" font-size="5.5" fill="#666666" transform="rotate(55 204.8 109.0)">E11</text>
<line x1="224.7" y1="104.0" x2="224.7" y2="108.0" stroke="#777777" stroke-width="0.7"/>
<text x="224.7" y="109.0" font-family="sans-serif" font-size="5.5" fill="#666666" transform="rotate(55 224.7 109.0)">E12</text>
<line x1="242.9" y1="104.0" x2="242.9" y2="108.0" stroke="#777777" stroke-width="0.7"/>
<text x="242.9" y="109.0" font-family="sans-serif" font-size="5.5" fill="#666666" transform="rotate(55 242.9 109.0)">E13</text>
<line x1="256.2" y1="104.0" x2="256.2" y2="108.0" stroke="#777777" stroke-width="0.7"/>
<text x="256.2" y="109.0" font-family="sans-serif" font-size="5.5" fill="#666666" transform="rotate(55 256.2 109.0)">E14</text>
<line x1="277.7" y1="104.0" x2="277.7" y2="108.0" stroke="#777777" stroke-width="0.7"/>
<text x="277.7" y="109.0" font-family="sans-serif" font-size="5.5" fill="#666666" transform="rotate(55 277.7 109.0)">E15</text>
<line x1="297.6" y1="104.0" x2="297.6" y2="108.0" stroke="#777777" stroke-width="0.7"/>
<text x="297.6" y="109.0" font-family="sans-serif" font-size="5.5" fill="#666666" transform="rotate(55 297.6 109.0)">E16</text>
<line x1="311.5" y1="104.0" x2="311.5" y2="108.0" stroke="#777777" stroke-width="0.7"/>
<text x="311.5" y="109.0" font-family="sans-serif" font-size="5.5" fill="#666666" transform="rotate(55 311.5 109.0)">E17</text>
<line x1="328.1" y1="104.0" x2="328.1" y2="108.0" stroke="#777777" stroke-width="0.7"/>
<text x="328.1" y="109.0" font-family="sans-serif" font-size="5.5" fill="#666666" transform="rotate(55 328.1 109.0)">E18</text>
<line x1="341.0" y1="104.0" x2="341.0" y2="108.0" stroke="#777777" stroke-width="0.7"/>
<text x="341.0" y="109.0" font-family="sans-serif" font-size="5.5" fill="#666666" transform="rotate(55 341.0 109.0)">E19</text>
<line x1="380.1" y1="104.0" x2="380.1" y2="108.0" stroke="#777777" stroke-width="0.7"/>
<text x="380.1" y="109.0" font-family="sans-serif" font-size="5.5" fill="#666666" transform="rotate(55 380.1 109.0)">E20</text>
<line x1="395.7" y1="104.0" x2="395.7" y2="108.0" stroke="#777777" stroke-width="0.7"/>
<text x="395.7" y="109.0" font-family="sans-serif" font-size="5.5" fill="#666666" transform="rotate(55 395.7 109.0)">E21</text>
<line x1="415.6" y1="104.0" x2="415.6" y2="108.0" stroke="#777777" stroke-width="0.7"/>
<text x="415.6" y="109.0" font-family="sans-serif" font-size="5.5" fill="#666666" transform="rotate(55 415.6 109.0)">E22</text>
<line x1="433.4" y1="104.0" x2="433.4" y2="108.0" stroke="#777777" stroke-width="0.7"/>
<text x="433.4" y="109.0" font-family="sans-serif" font-size="5.5" fill="#666666" transform="rotate(55 433.4 109.0)">E23</text>
<line x1="494.4" y1="104.0" x2="494.4" y2="108.0" stroke="#777777" stroke-width="0.7"/>
<text x="494.4" y="109.0" font-family="sans-serif" font-size="5.5" fill="#666666" transform="rotate(55 494.4 109.0)">E24</text>
<line x1="510.3" y1="104.0" x2="510.3" y2="108.0" stroke="#777777" stroke-width="0.7"/>
<text x="510.3" y="109.0" font-family="sans-serif" font-size="5.5" fill="#666666" transform="rotate(55 510.3 109.0)">E25</text>
<line x1="527.9" y1="104.0" x2="527.9" y2="108.0" stroke="#777777" stroke-width="0.7"/>
<text x="527.9" y="109.0" font-family="sans-serif" font-size="5.5" fill="#666666" transform="rotate(55 527.9 109.0)">E26</text>
<line x1="552.4" y1="104.0" x2="552.4" y2="108.0" stroke="#777777" stroke-width="0.7"/>
<text x="552.4" y="109.0" font-family="sans-serif" font-size="5.5" fill="#666666" transform="rotate(55 552.4 109.0)">E27</text>
<line x1="597.8" y1="104.0" x2="597.8" y2="108.0" stroke="#777777" stroke-width="0.7"/>
<text x="597.8" y="109.0" font-family="sans-serif" font-size="5.5" fill="#666666" transform="rotate(55 597.8 109.0)">E28</text>
<rect x="60.0" y="117.0" width="12" height="10" fill="#2878b5"/>
<text x="76.0" y="126.0" font-family="sans-serif" font-size="9">domain retained</text>
<rect x="227.0" y="117.0" width="12" height="10" fill="#f2a93b"/>
<text x="243.0" y="126.0" font-family="sans-serif" font-size="9">domain truncated</text>
<rect x="403.0" y="117.0" width="12" height="10" fill="#e2e2e2"/>
<text x="419.0" y="126.0" font-family="sans-serif" font-size="9">target backbone (no domain)</text>
<rect x="678.0" y="117.0" width="12" height="10" fill="#d62728"/>
<text x="694.0" y="126.0" font-family="sans-serif" font-size="9">breakpoint</text>
</svg>
