<svg xmlns="http://www.w3.org/2000/svg" width="1000" height="666" viewBox="0 0 1000 666">
<rect width="1000" height="666" fill="white"/>
<text x="60" y="24" font-family="sans-serif" font-size="15">BRAF intragenic-deletion schematic</text>
<text x="60" y="40" font-family="sans-serif" font-size="10" fill="#555">retained N-terminal block → deleted span (plain connector) → resumed C-terminal block</text>
<rect x="60.0" y="56.0" width="58.5" height="22" fill="#e2e2e2"/>
<line x1="60.7" y1="56.0" x2="60.7" y2="78.0" stroke="#555555" stroke-width="0.6" opacity="0.6"/>
<line x1="94.4" y1="56.0" x2="94.4" y2="78.0" stroke="#555555" stroke-width="0.6" opacity="0.6"/>
<rect x="380.2" y="56.0" width="239.8" height="22" fill="#e2e2e2"/>
<rect x="394.8" y="56.0" width="185.7" height="22" fill="#2878b5"/>
<text x="487.7" y="70.0" font-family="sans-serif" font-size="7" text-anchor="middle" fill="#111111" stroke="white" stroke-width="2" paint-order="stroke">Protein kinase domain</text>
<line x1="380.9" y1="56.0" x2="380.9" y2="78.0" stroke="#555555" stroke-width="0.6" opacity="0.6"/>
<line x1="409.5" y1="56.0" x2="409.5" y2="78.0" stroke="#555555" stroke-width="0.6" opacity="0.6"/>
<line x1="429.9" y1="56.0" x2="429.9" y2="78.0" stroke="#555555" stroke-width="0.6" opacity="0.6"/>
<line x1="473.1" y1="56.0" x2="473.1" y2="78.0" stroke="#555555" stroke-width="0.6" opacity="0.6"/>
<line x1="484.8" y1="56.0" x2="484.8" y2="78.0" stroke="#555555" stroke-width="0.6" opacity="0.6"/>
<line x1="514.0" y1="56.0" x2="514.0" y2="78.0" stroke="#555555" stroke-width="0.6" opacity="0.6"/>
<line x1="546.2" y1="56.0" x2="546.2" y2="78.0" stroke="#555555" stroke-width="0.6" opacity="0.6"/>
<line x1="579.1" y1="56.0" x2="579.1" y2="78.0" stroke="#555555" stroke-width="0.6" opacity="0.6"/>
<line x1="118.5" y1="67.0" x2="380.2" y2="67.0" stroke="#999999" stroke-width="1.5" stroke-dasharray="3,2"/>
<text x="660" y="70.5" font-family="sans-serif" font-size="9.5">8-exon deletion (in-frame) (x3)</text>
<rect x="60.0" y="82.0" width="34.4" height="22" fill="#e2e2e2"/>
<line x1="60.7" y1="82.0" x2="60.7" y2="104.0" stroke="#555555" stroke-width="0.6" opacity="0.6"/>
<rect x="338.5" y="82.0" width="281.5" height="22" fill="#e2e2e2"/>
<rect x="394.8" y="82.0" width="185.7" height="22" fill="#2878b5"/>
<text x="487.7" y="96.0" font-family="sans-serif" font-size="7" text-anchor="middle" fill="#111111" stroke="white" stroke-width="2" paint-order="stroke">Protein kinase domain</text>
<line x1="347.3" y1="82.0" x2="347.3" y2="104.0" stroke="#555555" stroke-width="0.6" opacity="0.6"/>
<line x1="380.9" y1="82.0" x2="380.9" y2="104.0" stroke="#555555" stroke-width="0.6" opacity="0.6"/>
<line x1="409.5" y1="82.0" x2="409.5" y2="104.0" stroke="#555555" stroke-width="0.6" opacity="0.6"/>
<line x1="429.9" y1="82.0" x2="429.9" y2="104.0" stroke="#555555" stroke-width="0.6" opacity="0.6"/>
<line x1="473.1" y1="82.0" x2="473.1" y2="104.0" stroke="#555555" stroke-width="0.6" opacity="0.6"/>
<line x1="484.8" y1="82.0" x2="484.8" y2="104.0" stroke="#555555" stroke-width="0.6" opacity="0.6"/>
<line x1="514.0" y1="82.0" x2="514.0" y2="104.0" stroke="#555555" stroke-width="0.6" opacity="0.6"/>
<line x1="546.2" y1="82.0" x2="546.2" y2="104.0" stroke="#555555" stroke-width="0.6" opacity="0.6"/>
<line x1="579.1" y1="82.0" x2="579.1" y2="104.0" stroke="#555555" stroke-width="0.6" opacity="0.6"/>
<line x1="94.4" y1="93.0" x2="338.5" y2="93.0" stroke="#999999" stroke-width="1.5" stroke-dasharray="3,2"/>
<text x="660" y="96.5" font-family="sans-serif" font-size="9.5">7-exon deletion (in-frame) (x2)</text>
<rect x="60.0" y="108.0" width="33.6" height="22" fill="#e2e2e2"/>
<line x1="60.7" y1="108.0" x2="60.7" y2="130.0" stroke="#555555" stroke-width="0.6" opacity="0.6"/>
<rect x="380.2" y="108.0" width="239.8" height="22" fill="#e2e2e2"/>
<rect x="394.8" y="108.0" width="185.7" height="22" fill="#2878b5"/>
<text x="487.7" y="122.0" font-family="sans-serif" font-size="7" text-anchor="middle" fill="#111111" stroke="white" stroke-width="2" paint-order="stroke">Protein kinase domain</text>
<line x1="380.9" y1="108.0" x2="380.9" y2="130.0" stroke="#555555" stroke-width="0.6" opacity="0.6"/>
<line x1="409.5" y1="108.0" x2="409.5" y2="130.0" stroke="#555555" stroke-width="0.6" opacity="0.6"/>
<line x1="429.9" y1="108.0" x2="429.9" y2="130.0" stroke="#555555" stroke-width="0.6" opacity="0.6"/>
<line x1="473.1" y1="108.0" x2="473.1" y2="130.0" stroke="#555555" stroke-width="0.6" opacity="0.6"/>
<line x1="484.8" y1="108.0" x2="484.8" y2="130.0" stroke="#555555" stroke-width="0.6" opacity="0.6"/>
<line x1="514.0" y1="108.0" x2="514.0" y2="130.0" stroke="#555555" stroke-width="0.6" opacity="0.6"/>
<line x1="546.2" y1="108.0" x2="546.2" y2="130.0" stroke="#555555" stroke-width="0.6" opacity="0.6"/>
<line x1="579.1" y1="108.0" x2="579.1" y2="130.0" stroke="#555555" stroke-width="0.6" opacity="0.6"/>
<line x1="93.6" y1="119.0" x2="380.2" y2="119.0" stroke="#999999" stroke-width="1.5" stroke-dasharray="3,2"/>
<text x="660" y="122.5" font-family="sans-serif" font-size="9.5">9-exon deletion (in-frame)</text>
<rect x="60.0" y="134.0" width="33.6" height="22" fill="#e2e2e2"/>
<line x1="60.7" y1="134.0" x2="60.7" y2="156.0" stroke="#555555" stroke-width="0.6" opacity="0.6"/>
<rect x="338.5" y="134.0" width="281.5" height="22" fill="#e2e2e2"/>
<rect x="394.8" y="134.0" width="185.7" height="22" fill="#2878b5"/>
<text x="487.7" y="148.0" font-family="sans-serif" font-size="7" text-anchor="middle" fill="#111111" stroke="white" stroke-width="2" paint-order="stroke">Protein kinase domain</text>
<line x1="347.3" y1="134.0" x2="347.3" y2="156.0" stroke="#555555" stroke-width="0.6" opacity="0.6"/>
<line x1="380.9" y1="134.0" x2="380.9" y2="156.0" stroke="#555555" stroke-width="0.6" opacity="0.6"/>
<line x1="409.5" y1="134.0" x2="409.5" y2="156.0" stroke="#555555" stroke-width="0.6" opacity="0.6"/>
<line x1="429.9" y1="134.0" x2="429.9" y2="156.0" stroke="#555555" stroke-width="0.6" opacity="0.6"/>
<line x1="473.1" y1="134.0" x2="473.1" y2="156.0" stroke="#555555" stroke-width="0.6" opacity="0.6"/>
<line x1="484.8" y1="134.0" x2="484.8" y2="156.0" stroke="#555555" stroke-width="0.6" opacity="0.6"/>
<line x1="514.0" y1="134.0" x2="514.0" y2="156.0" stroke="#555555" stroke-width="0.6" opacity="0.6"/>
<line x1="546.2" y1="134.0" x2="546.2" y2="156.0" stroke="#555555" stroke-width="0.6" opacity="0.6"/>
<line x1="579.1" y1="134.0" x2="579.1" y2="156.0" stroke="#555555" stroke-width="0.6" opacity="0.6"/>
<line x1="93.6" y1="145.0" x2="338.5" y2="145.0" stroke="#999999" stroke-width="1.5" stroke-dasharray="3,2"/>
<text x="660" y="148.5" font-family="sans-serif" font-size="9.5">7-exon deletion (in-frame)</text>
<rect x="60.0" y="160.0" width="34.4" height="22" fill="#e2e2e2"/>
<line x1="60.7" y1="160.0" x2="60.7" y2="182.0" stroke="#555555" stroke-width="0.6" opacity="0.6"/>
<rect x="380.2" y="160.0" width="239.8" height="22" fill="#e2e2e2"/>
<rect x="394.8" y="160.0" width="185.7" height="22" fill="#2878b5"/>
<text x="487.7" y="174.0" font-family="sans-serif" font-size="7" text-anchor="middle" fill="#111111" stroke="white" stroke-width="2" paint-order="stroke">Protein kinase domain</text>
<line x1="380.9" y1="160.0" x2="380.9" y2="182.0" stroke="#555555" stroke-width="0.6" opacity="0.6"/>
<line x1="409.5" y1="160.0" x2="409.5" y2="182.0" stroke="#555555" stroke-width="0.6" opacity="0.6"/>
<line x1="429.9" y1="160.0" x2="429.9" y2="182.0" stroke="#555555" stroke-width="0.6" opacity="0.6"/>
<line x1="473.1" y1="160.0" x2="473.1" y2="182.0" stroke="#555555" stroke-width="0.6" opacity="0.6"/>
<line x1="484.8" y1="160.0" x2="484.8" y2="182.0" stroke="#555555" stroke-width="0.6" opacity="0.6"/>
<line x1="514.0" y1="160.0" x2="514.0" y2="182.0" stroke="#555555" stroke-width="0.6" opacity="0.6"/>
<line x1="546.2" y1="160.0" x2="546.2" y2="182.0" stroke="#555555" stroke-width="0.6" opacity="0.6"/>
<line x1="579.1" y1="160.0" x2="579.1" y2="182.0" stroke="#555555" stroke-width="0.6" opacity="0.6"/>
<line x1="94.4" y1="171.0" x2="380.2" y2="171.0" stroke="#999999" stroke-width="1.5" stroke-dasharray="3,2"/>
<text x="660" y="174.5" font-family="sans-serif" font-size="9.5">9-exon deletion (in-frame)</text>
<rect x="60.0" y="186.0" width="34.4" height="22" fill="#e2e2e2"/>
<line x1="60.7" y1="186.0" x2="60.7" y2="208.0" stroke="#555555" stroke-width="0.6" opacity="0.6"/>
<rect x="347.3" y="186.0" width="272.7" height="22" fill="#e2e2e2"/>
<rect x="394.8" y="186.0" width="185.7" height="22" fill="#2878b5"/>
<text x="487.7" y="200.0" font-family="sans-serif" font-size="7" text-anchor="middle" fill="#111111" stroke="white" stroke-width="2" paint-order="stroke">Protein kinase domain</text>
<line x1="380.9" y1="186.0" x2="380.9" y2="208.0" stroke="#555555" stroke-width="0.6" opacity="0.6"/>
<line x1="409.5" y1="186.0" x2="409.5" y2="208.0" stroke="#555555" stroke-width="0.6" opacity="0.6"/>
<line x1="429.9" y1="186.0" x2="429.9" y2="208.0" stroke="#555555" stroke-width="0.6" opacity="0.6"/>
<line x1="473.1" y1="186.0" x2="473.1" y2="208.0" stroke="#555555" stroke-width="0.6" opacity="0.6"/>
<line x1="484.8" y1="186.0" x2="484.8" y2="208.0" stroke="#555555" stroke-width="0.6" opacity="0.6"/>
<line x1="514.0" y1="186.0" x2="514.0" y2="208.0" stroke="#555555" stroke-width="0.6" opacity="0.6"/>
<line x1="546.2" y1="186.0" x2="546.2" y2="208.0" stroke="#555555" stroke-width="0.6" opacity="0.6"/>
<line x1="579.1" y1="186.0" x2="579.1" y2="208.0" stroke="#555555" stroke-width="0.6" opacity="0.6"/>
<line x1="94.4" y1="197.0" x2="347.3" y2="197.0" stroke="#999999" stroke-width="1.5" stroke-dasharray="3,2"/>
<text x="660" y="200.5" font-family="sans-serif" font-size="9.5">8-exon deletion (out-of-frame)</text>
<rect x="60.0" y="212.0" width="58.5" height="22" fill="#e2e2e2"/>
<line x1="60.7" y1="212.0" x2="60.7" y2="234.0" stroke="#555555" stroke-width="0.6" opacity="0.6"/>
<line x1="94.4" y1="212.0" x2="94.4" y2="234.0" stroke="#555555" stroke-width="0.6" opacity="0.6"/>
<rect x="337.8" y="212.0" width="282.2" height="22" fill="#e2e2e2"/>
<rect x="394.8" y="212.0" width="185.7" height="22" fill="#2878b5"/>
<text x="487.7" y="226.0" font-family="sans-serif" font-size="7" text-anchor="middle" fill="#111111" stroke="white" stroke-width="2" paint-order="stroke">Protein kinase domain</text>
<line x1="338.5" y1="212.0" x2="338.5" y2="234.0" stroke="#555555" stroke-width="0.6" opacity="0.6"/>
<line x1="347.3" y1="212.0" x2="347.3" y2="234.0" stroke="#555555" stroke-width="0.6" opacity="0.6"/>
<line x1="380.9" y1="212.0" x2="380.9" y2="234.0" stroke="#555555" stroke-width="0.6" opacity="0.6"/>
<line x1="409.5" y1="212.0" x2="409.5" y2="234.0" stroke="#555555" stroke-width="0.6" opacity="0.6"/>
<line x1="429.9" y1="212.0" x2="429.9" y2="234.0" stroke="#555555" stroke-width="0.6" opacity="0.6"/>
<line x1="473.1" y1="212.0" x2="473.1" y2="234.0" stroke="#555555" stroke-width="0.6" opacity="0.6"/>
<line x1="484.8" y1="212.0" x2="484.8" y2="234.0" stroke="#555555" stroke-width="0.6" opacity="0.6"/>
<line x1="514.0" y1="212.0" x2="514.0" y2="234.0" stroke="#555555" stroke-width="0.6" opacity="0.6"/>
<line x1="546.2" y1="212.0" x2="546.2" y2="234.0" stroke="#555555" stroke-width="0.6" opacity="0.6"/>
<line x1="579.1" y1="212.0" x2="579.1" y2="234.0" stroke="#555555" stroke-width="0.6" opacity="0.6"/>
<line x1="118.5" y1="223.0" x2="337.8" y2="223.0" stroke="#999999" stroke-width="1.5" stroke-dasharray="3,2"/>
<text x="660" y="226.5" font-family="sans-serif" font-size="9.5">6-exon deletion (in-frame)</text>
<rect x="60.0" y="238.0" width="59.2" height="22" fill="#e2e2e2"/>
<line x1="60.7" y1="238.0" x2="60.7" y2="260.0" stroke="#555555" stroke-width="0.6" opacity="0.6"/>
<line x1="94.4" y1="238.0" x2="94.4" y2="260.0" stroke="#555555" stroke-width="0.6" opacity="0.6"/>
<rect x="337.8" y="238.0" width="282.2" height="22" fill="#e2e2e2"/>
<rect x="394.8" y="238.0" width="185.7" height="22" fill="#2878b5"/>
<text x="487.7" y="252.0" font-family="sans-serif" font-size="7" text-anchor="middle" fill="#111111" stroke="white" stroke-width="2" paint-order="stroke">Protein kinase domain</text>
<line x1="338.5" y1="238.0" x2="338.5" y2="260.0" stroke="#555555" stroke-width="0.6" opacity="0.6"/>
<line x1="347.3" y1="238.0" x2="347.3" y2="260.0" stroke="#555555" stroke-width="0.6" opacity="0.6"/>
<line x1="380.9" y1="238.0" x2="380.9" y2="260.0" stroke="#555555" stroke-width="0.6" opacity="0.6"/>
<line x1="409.5" y1="238.0" x2="409.5" y2="260.0" stroke="#555555" stroke-width="0.6" opacity="0.6"/>
<line x1="429.9" y1="238.0" x2="429.9" y2="260.0" stroke="#555555" stroke-width="0.6" opacity="0.6"/>
<line x1="473.1" y1="238.0" x2="473.1" y2="260.0" stroke="#555555" stroke-width="0.6" opacity="0.6"/>
<line x1="484.8" y1="238.0" x2="484.8" y2="260.0" stroke="#555555" stroke-width="0.6" opacity="0.6"/>
<line x1="514.0" y1="238.0" x2="514.0" y2="260.0" stroke="#555555" stroke-width="0.6" opacity="0.6"/>
<line x1="546.2" y1="238.0" x2="546.2" y2="260.0" stroke="#555555" stroke-width="0.6" opacity="0.6"/>
<line x1="579.1" y1="238.0" x2="579.1" y2="260.0" stroke="#555555" stroke-width="0.6" opacity="0.6"/>
<line x1="119.2" y1="249.0" x2="337.8" y2="249.0" stroke="#999999" stroke-width="1.5" stroke-dasharray="3,2"/>
<text x="660" y="252.5" font-family="sans-serif" font-size="9.5">6-exon deletion (in-frame)</text>
<rect x="60.0" y="264.0" width="59.2" height="22" fill="#e2e2e2"/>
<line x1="60.7" y1="264.0" x2="60.7" y2="286.0" stroke="#555555" stroke-width="0.6" opacity="0.6"/>
<line x1="94.4" y1="264.0" x2="94.4" y2="286.0" stroke="#555555" stroke-width="0.6" opacity="0.6"/>
<rect x="338.5" y="264.0" width="281.5" height="22" fill="#e2e2e2"/>
<rect x="394.8" y="264.0" width="185.7" height="22" fill="#2878b5"/>
<text x="487.7" y="278.0" font-family="sans-serif" font-size="7" text-anchor="middle" fill="#111111" stroke="white" stroke-width="2" paint-order="stroke">Protein kinase domain</text>
<line x1="347.3" y1="264.0" x2="347.3" y2="286.0" stroke="#555555" stroke-width="0.6" opacity="0.6"/>
<line x1="380.9" y1="264.0" x2="380.9" y2="286.0" stroke="#555555" stroke-width="0.6" opacity="0.6"/>
<line x1="409.5" y1="264.0" x2="409.5" y2="286.0" stroke="#555555" stroke-width="0.6" opacity="0.6"/>
<line x1="429.9" y1="264.0" x2="429.9" y2="286.0" stroke="#555555" stroke-width="0.6" opacity="0.6"/>
<line x1="473.1" y1="264.0" x2="473.1" y2="286.0" stroke="#555555" stroke-width="0.6" opacity="0.6"/>
<line x1="484.8" y1="264.0" x2="484.8" y2="286.0" stroke="#555555" stroke-width="0.6" opacity="0.6"/>
<line x1="514.0" y1="264.0" x2="514.0" y2="286.0" stroke="#555555" stroke-width="0.6" opacity="0.6"/>
<line x1="546.2" y1="264.0" x2="546.2" y2="286.0" stroke="#555555" stroke-width="0.6" opacity="0.6"/>
<line x1="579.1" y1="264.0" x2="579.1" y2="286.0" stroke="#555555" stroke-width="0.6" opacity="0.6"/>
<line x1="119.2" y1="275.0" x2="338.5" y2="275.0" stroke="#999999" stroke-width="1.5" stroke-dasharray="3,2"/>
<text x="660" y="278.5" font-family="sans-serif" font-size="9.5">6-exon deletion (in-frame)</text>
<rect x="60.0" y="290.0" width="59.2" height="22" fill="#e2e2e2"/>
<line x1="60.7" y1="290.0" x2="60.7" y2="312.0" stroke="#555555" stroke-width="0.6" opacity="0.6"/>
<line x1="94.4" y1="290.0" x2="94.4" y2="312.0" stroke="#555555" stroke-width="0.6" opacity="0.6"/>
<rect x="380.2" y="290.0" width="239.8" height="22" fill="#e2e2e2"/>
<rect x="394.8" y="290.0" width="185.7" height="22" fill="#2878b5"/>
<text x="487.7" y="304.0" font-family="sans-serif" font-size="7" text-anchor="middle" fill="#111111" stroke="white" stroke-width="2" paint-order="stroke">Protein kinase domain</text>
<line x1="380.9" y1="290.0" x2="380.9" y2="312.0" stroke="#555555" stroke-width="0.6" opacity="0.6"/>
<line x1="409.5" y1="290.0" x2="409.5" y2="312.0" stroke="#555555" stroke-width="0.6" opacity="0.6"/>
<line x1="429.9" y1="290.0" x2="429.9" y2="312.0" stroke="#555555" stroke-width="0.6" opacity="0.6"/>
<line x1="473.1" y1="290.0" x2="473.1" y2="312.0" stroke="#555555" stroke-width="0.6" opacity="0.6"/>
<line x1="484.8" y1="290.0" x2="484.8" y2="312.0" stroke="#555555" stroke-width="0.6" opacity="0.6"/>
<line x1="514.0" y1="290.0" x2="514.0" y2="312.0" stroke="#555555" stroke-width="0.6" opacity="0.6"/>
<line x1="546.2" y1="290.0" x2="546.2" y2="312.0" stroke="#555555" stroke-width="0.6" opacity="0.6"/>
<line x1="579.1" y1="290.0" x2="579.1" y2="312.0" stroke="#555555" stroke-width="0.6" opacity="0.6"/>
<line x1="119.2" y1="301.0" x2="380.2" y2="301.0" stroke="#999999" stroke-width="1.5" stroke-dasharray="3,2"/>
<text x="660" y="304.5" font-family="sans-serif" font-size="9.5">8-exon deletion (in-frame)</text>
<rect x="60.0" y="316.0" width="122.8" height="22" fill="#e2e2e2"/>
<rect x="174.0" y="316.0" width="8.8" height="22" fill="#f2a93b"/>
<line x1="60.7" y1="316.0" x2="60.7" y2="338.0" stroke="#555555" stroke-width="0.6" opacity="0.6"/>
<line x1="94.4" y1="316.0" x2="94.4" y2="338.0" stroke="#555555" stroke-width="0.6" opacity="0.6"/>
<line x1="119.2" y1="316.0" x2="119.2" y2="338.0" stroke="#555555" stroke-width="0.6" opacity="0.6"/>
<rect x="380.2" y="316.0" width="239.8" height="22" fill="#e2e2e2"/>
<rect x="394.8" y="316.0" width="185.7" height="22" fill="#2878b5"/>
<text x="487.7" y="330.0" font-family="sans-serif" font-size="7" text-anchor="middle" fill="#111111" stroke="white" stroke-width="2" paint-order="stroke">Protein kinase domain</text>
<line x1="380.9" y1="316.0" x2="380.9" y2="338.0" stroke="#555555" stroke-width="0.6" opacity="0.6"/>
<line x1="409.5" y1="316.0" x2="409.5" y2="338.0" stroke="#555555" stroke-width="0.6" opacity="0.6"/>
<line x1="429.9" y1="316.0" x2="429.9" y2="338.0" stroke="#555555" stroke-width="0.6" opacity="0.6"/>
<line x1="473.1" y1="316.0" x2="473.1" y2="338.0" stroke="#555555" stroke-width="0.6" opacity="0.6"/>
<line x1="484.8" y1="316.0" x2="484.8" y2="338.0" stroke="#555555" stroke-width="0.6" opacity="0.6"/>
<line x1="514.0" y1="316.0" x2="514.0" y2="338.0" stroke="#555555" stroke-width="0.6" opacity="0.6"/>
<line x1="546.2" y1="316.0" x2="546.2" y2="338.0" stroke="#555555" stroke-width="0.6" opacity="0.6"/>
<line x1="579.1" y1="316.0" x2="579.1" y2="338.0" stroke="#555555" stroke-width="0.6" opacity="0.6"/>
<line x1="182.8" y1="327.0" x2="380.2" y2="327.0" stroke="#999999" stroke-width="1.5" stroke-dasharray="3,2"/>
<text x="660" y="330.5" font-family="sans-serif" font-size="9.5">7-exon deletion (in-frame)</text>
<rect x="60.0" y="342.0" width="122.8" height="22" fill="#e2e2e2"/>
<rect x="174.0" y="342.0" width="8.8" height="22" fill="#f2a93b"/>
<line x1="60.7" y1="342.0" x2="60.7" y2="364.0" stroke="#555555" stroke-width="0.6" opacity="0.6"/>
<line x1="94.4" y1="342.0" x2="94.4" y2="364.0" stroke="#555555" stroke-width="0.6" opacity="0.6"/>
<line x1="119.2" y1="342.0" x2="119.2" y2="364.0" stroke="#555555" stroke-width="0.6" opacity="0.6"/>
<rect x="337.8" y="342.0" width="282.2" height="22" fill="#e2e2e2"/>
<rect x="394.8" y="342.0" width="185.7" height="22" fill="#2878b5"/>
<text x="487.7" y="356.0" font-family="sans-serif" font-size="7" text-anchor="middle" fill="#111111" stroke="white" stroke-width="2" paint-order="stroke">Protein kinase domain</text>
<line x1="338.5" y1="342.0" x2="338.5" y2="364.0" stroke="#555555" stroke-width="0.6" opacity="0.6"/>
<line x1="347.3" y1="342.0" x2="347.3" y2="364.0" stroke="#555555" stroke-width="0.6" opacity="0.6"/>
<line x1="380.9" y1="342.0" x2="380.9" y2="364.0" stroke="#555555" stroke-width="0.6" opacity="0.6"/>
<line x1="409.5" y1="342.0" x2="409.5" y2="364.0" stroke="#555555" stroke-width="0.6" opacity="0.6"/>
<line x1="429.9" y1="342.0" x2="429.9" y2="364.0" stroke="#555555" stroke-width="0.6" opacity="0.6"/>
<line x1="473.1" y1="342.0" x2="473.1" y2="364.0" stroke="#555555" stroke-width="0.6" opacity="0.6"/>
<line x1="484.8" y1="342.0" x2="484.8" y2="364.0" stroke="#555555" stroke-width="0.6" opacity="0.6"/>
<line x1="514.0" y1="342.0" x2="514.0" y2="364.0" stroke="#555555" stroke-width="0.6" opacity="0.6"/>
<line x1="546.2" y1="342.0" x2="546.2" y2="364.0" stroke="#555555" stroke-width="0.6" opacity="0.6"/>
<line x1="579.1" y1="342.0" x2="579.1" y2="364.0" stroke="#555555" stroke-width="0.6" opacity="0.6"/>
<line x1="182.8" y1="353.0" x2="337.8" y2="353.0" stroke="#999999" stroke-width="1.5" stroke-dasharray="3,2"/>
<text x="660" y="356.5" font-family="sans-serif" font-size="9.5">5-exon deletion (in-frame)</text>
<rect x="60.0" y="368.0" width="123.6" height="22" fill="#e2e2e2"/>
<rect x="174.0" y="368.0" width="9.5" height="22" fill="#f2a93b"/>
<line x1="60.7" y1="368.0" x2="60.7" y2="390.0" stroke="#555555" stroke-width="0.6" opacity="0.6"/>
<line x1="94.4" y1="368.0" x2="94.4" y2="390.0" stroke="#555555" stroke-width="0.6" opacity="0.6"/>
<line x1="119.2" y1="368.0" x2="119.2" y2="390.0" stroke="#555555" stroke-width="0.6" opacity="0.6"/>
<rect x="338.5" y="368.0" width="281.5" height="22" fill="#e2e2e2"/>
<rect x="394.8" y="368.0" width="185.7" height="22" fill="#2878b5"/>
<text x="487.7" y="382.0" font-family="sans-serif" font-size="7" text-anchor="middle" fill="#111111" stroke="white" stroke-width="2" paint-order="stroke">Protein kinase domain</text>
<line x1="347.3" y1="368.0" x2="347.3" y2="390.0" stroke="#555555" stroke-width="0.6" opacity="0.6"/>
<line x1="380.9" y1="368.0" x2="380.9" y2="390.0" stroke="#555555" stroke-width="0.6" opacity="0.6"/>
<line x1="409.5" y1="368.0" x2="409.5" y2="390.0" stroke="#555555" stroke-width="0.6" opacity="0.6"/>
<line x1="429.9" y1="368.0" x2="429.9" y2="390.0" stroke="#555555" stroke-width="0.6" opacity="0.6"/>
<line x1="473.1" y1="368.0" x2="473.1" y2="390.0" stroke="#555555" stroke-width="0.6" opacity="0.6"/>
<line x1="484.8" y1="368.0" x2="484.8" y2="390.0" stroke="#555555" stroke-width="0.6" opacity="0.6"/>
<line x1="514.0" y1="368.0" x2="514.0" y2="390.0" stroke="#555555" stroke-width="0.6" opacity="0.6"/>
<line x1="546.2" y1="368.0" x2="546.2" y2="390.0" stroke="#555555" stroke-width="0.6" opacity="0.6"/>
<line x1="579.1" y1="368.0" x2="579.1" y2="390.0" stroke="#555555" stroke-width="0.6" opacity="0.6"/>
<line x1="183.6" y1="379.0" x2="338.5" y2="379.0" stroke="#999999" stroke-width="1.5" stroke-dasharray="3,2"/>
<text x="660" y="382.5" font-family="sans-serif" font-size="9.5">5-exon deletion (in-frame)</text>
<rect x="60.0" y="394.0" width="173.3" height="22" fill="#e2e2e2"/>
<rect x="174.0" y="394.0" width="51.9" height="22" fill="#2878b5"/>
<text x="200.0" y="408.0" font-family="sans-serif" font-size="7" text-anchor="middle" fill="#111111" stroke="white" stroke-width="2" paint-order="stroke">RAS-binding…</text>
<rect x="231.8" y="394.0" width="1.5" height="22" fill="#f2a93b"/>
<line x1="60.7" y1="394.0" x2="60.7" y2="416.0" stroke="#555555" stroke-width="0.6" opacity="0.6"/>
<line x1="94.4" y1="394.0" x2="94.4" y2="416.0" stroke="#555555" stroke-width="0.6" opacity="0.6"/>
<line x1="119.2" y1="394.0" x2="119.2" y2="416.0" stroke="#555555" stroke-width="0.6" opacity="0.6"/>
<line x1="183.6" y1="394.0" x2="183.6" y2="416.0" stroke="#555555" stroke-width="0.6" opacity="0.6"/>
<line x1="208.4" y1="394.0" x2="208.4" y2="416.0" stroke="#555555" stroke-width="0.6" opacity="0.6"/>
<rect x="380.2" y="394.0" width="239.8" height="22" fill="#e2e2e2"/>
<rect x="394.8" y="394.0" width="185.7" height="22" fill="#2878b5"/>
<text x="487.7" y="408.0" font-family="sans-serif" font-size="7" text-anchor="middle" fill="#111111" stroke="white" stroke-width="2" paint-order="stroke">Protein kinase domain</text>
<line x1="380.9" y1="394.0" x2="380.9" y2="416.0" stroke="#555555" stroke-width="0.6" opacity="0.6"/>
<line x1="409.5" y1="394.0" x2="409.5" y2="416.0" stroke="#555555" stroke-width="0.6" opacity="0.6"/>
<line x1="429.9" y1="394.0" x2="429.9" y2="416.0" stroke="#555555" stroke-width="0.6" opacity="0.6"/>
<line x1="473.1" y1="394.0" x2="473.1" y2="416.0" stroke="#555555" stroke-width="0.6" opacity="0.6"/>
<line x1="484.8" y1="394.0" x2="484.8" y2="416.0" stroke="#555555" stroke-width="0.6" opacity="0.6"/>
<line x1="514.0" y1="394.0" x2="514.0" y2="416.0" stroke="#555555" stroke-width="0.6" opacity="0.6"/>
<line x1="546.2" y1="394.0" x2="546.2" y2="416.0" stroke="#555555" stroke-width="0.6" opacity="0.6"/>
<line x1="579.1" y1="394.0" x2="579.1" y2="416.0" stroke="#555555" stroke-width="0.6" opacity="0.6"/>
<line x1="233.3" y1="405.0" x2="380.2" y2="405.0" stroke="#999999" stroke-width="1.5" stroke-dasharray="3,2"/>
<text x="660" y="408.5" font-family="sans-serif" font-size="9.5">5-exon deletion (in-frame)</text>
<rect x="60.0" y="420.0" width="173.3" height="22" fill="#e2e2e2"/>
<rect x="174.0" y="420.0" width="51.9" height="22" fill="#2878b5"/>
<text x="200.0" y="434.0" font-family="sans-serif" font-size="7" text-anchor="middle" fill="#111111" stroke="white" stroke-width="2" paint-order="stroke">RAS-binding…</text>
<rect x="231.8" y="420.0" width="1.5" height="22" fill="#f2a93b"/>
<line x1="60.7" y1="420.0" x2="60.7" y2="442.0" stroke="#555555" stroke-width="0.6" opacity="0.6"/>
<line x1="94.4" y1="420.0" x2="94.4" y2="442.0" stroke="#555555" stroke-width="0.6" opacity="0.6"/>
<line x1="119.2" y1="420.0" x2="119.2" y2="442.0" stroke="#555555" stroke-width="0.6" opacity="0.6"/>
<line x1="183.6" y1="420.0" x2="183.6" y2="442.0" stroke="#555555" stroke-width="0.6" opacity="0.6"/>
<line x1="208.4" y1="420.0" x2="208.4" y2="442.0" stroke="#555555" stroke-width="0.6" opacity="0.6"/>
<rect x="338.5" y="420.0" width="281.5" height="22" fill="#e2e2e2"/>
<rect x="394.8" y="420.0" width="185.7" height="22" fill="#2878b5"/>
<text x="487.7" y="434.0" font-family="sans-serif" font-size="7" text-anchor="middle" fill="#111111" stroke="white" stroke-width="2" paint-order="stroke">Protein kinase domain</text>
<line x1="347.3" y1="420.0" x2="347.3" y2="442.0" stroke="#555555" stroke-width="0.6" opacity="0.6"/>
<line x1="380.9" y1="420.0" x2="380.9" y2="442.0" stroke="#555555" stroke-width="0.6" opacity="0.6"/>
<line x1="409.5" y1="420.0" x2="409.5" y2="442.0" stroke="#555555" stroke-width="0.6" opacity="0.6"/>
<line x1="429.9" y1="420.0" x2="429.9" y2="442.0" stroke="#555555" stroke-width="0.6" opacity="0.6"/>
<line x1="473.1" y1="420.0" x2="473.1" y2="442.0" stroke="#555555" stroke-width="0.6" opacity="0.6"/>
<line x1="484.8" y1="420.0" x2="484.8" y2="442.0" stroke="#555555" stroke-width="0.6" opacity="0.6"/>
<line x1="514.0" y1="420.0" x2="514.0" y2="442.0" stroke="#555555" stroke-width="0.6" opacity="0.6"/>
<line x1="546.2" y1="420.0" x2="546.2" y2="442.0" stroke="#555555" stroke-width="0.6" opacity="0.6"/>
<line x1="579.1" y1="420.0" x2="579.1" y2="442.0" stroke="#555555" stroke-width="0.6" opacity="0.6"/>
<line x1="233.3" y1="431.0" x2="338.5" y2="431.0" stroke="#999999" stroke-width="1.5" stroke-dasharray="3,2"/>
<text x="660" y="434.5" font-family="sans-serif" font-size="9.5">3-exon deletion (in-frame)</text>
<rect x="60.0" y="446.0" width="174.0" height="22" fill="#e2e2e2"/>
<rect x="174.0" y="446.0" width="51.9" height="22" fill="#2878b5"/>
<text x="200.0" y="460.0" font-family="sans-serif" font-size="7" text-anchor="middle" fill="#111111" stroke="white" stroke-width="2" paint-order="stroke">RAS-binding…</text>
<rect x="231.8" y="446.0" width="2.2" height="22" fill="#f2a93b"/>
<line x1="60.7" y1="446.0" x2="60.7" y2="468.0" stroke="#555555" stroke-width="0.6" opacity="0.6"/>
<line x1="94.4" y1="446.0" x2="94.4" y2="468.0" stroke="#555555" stroke-width="0.6" opacity="0.6"/>
<line x1="119.2" y1="446.0" x2="119.2" y2="468.0" stroke="#555555" stroke-width="0.6" opacity="0.6"/>
<line x1="183.6" y1="446.0" x2="183.6" y2="468.0" stroke="#555555" stroke-width="0.6" opacity="0.6"/>
<line x1="208.4" y1="446.0" x2="208.4" y2="468.0" stroke="#555555" stroke-width="0.6" opacity="0.6"/>
<rect x="380.2" y="446.0" width="239.8" height="22" fill="#e2e2e2"/>
<rect x="394.8" y="446.0" width="185.7" height="22" fill="#2878b5"/>
<text x="487.7" y="460.0" font-family="sans-serif" font-size="7" text-anchor="middle" fill="#111111" stroke="white" stroke-width="2" paint-order="stroke">Protein kinase domain</text>
<line x1="380.9" y1="446.0" x2="380.9" y2="468.0" stroke="#555555" stroke-width="0.6" opacity="0.6"/>
<line x1="409.5" y1="446.0" x2="409.5" y2="468.0" stroke="#555555" stroke-width="0.6" opacity="0.6"/>
<line x1="429.9" y1="446.0" x2="429.9" y2="468.0" stroke="#555555" stroke-width="0.6" opacity="0.6"/>
<line x1="473.1" y1="446.0" x2="473.1" y2="468.0" stroke="#555555" stroke-width="0.6" opacity="0.6"/>
<line x1="484.8" y1="446.0" x2="484.8" y2="468.0" stroke="#555555" stroke-width="0.6" opacity="0.6"/>
<line x1="514.0" y1="446.0" x2="514.0" y2="468.0" stroke="#555555" stroke-width="0.6" opacity="0.6"/>
<line x1="546.2" y1="446.0" x2="546.2" y2="468.0" stroke="#555555" stroke-width="0.6" opacity="0.6"/>
<line x1="579.1" y1="446.0" x2="579.1" y2="468.0" stroke="#555555" stroke-width="0.6" opacity="0.6"/>
<line x1="234.0" y1="457.0" x2="380.2" y2="457.0" stroke="#999999" stroke-width="1.5" stroke-dasharray="3,2"/>
<text x="660" y="460.5" font-family="sans-serif" font-size="9.5">5-exon deletion (in-frame)</text>
<rect x="60.0" y="472.0" width="239.1" height="22" fill="#e2e2e2"/>
<rect x="174.0" y="472.0" width="51.9" height="22" fill="#2878b5"/>
<text x="200.0" y="486.0" font-family="sans-serif" font-size="7" text-anchor="middle" fill="#111111" stroke="white" stroke-width="2" paint-order="stroke">RAS-binding…</text>
<rect x="231.8" y="472.0" width="32.9" height="22" fill="#2878b5"/>
<text x="248.3" y="486.0" font-family="sans-serif" font-size="7" text-anchor="middle" fill="#111111" stroke="white" stroke-width="2" paint-order="stroke">Cystein…</text>
<line x1="60.7" y1="472.0" x2="60.7" y2="494.0" stroke="#555555" stroke-width="0.6" opacity="0.6"/>
<line x1="94.4" y1="472.0" x2="94.4" y2="494.0" stroke="#555555" stroke-width="0.6" opacity="0.6"/>
<line x1="119.2" y1="472.0" x2="119.2" y2="494.0" stroke="#555555" stroke-width="0.6" opacity="0.6"/>
<line x1="183.6" y1="472.0" x2="183.6" y2="494.0" stroke="#555555" stroke-width="0.6" opacity="0.6"/>
<line x1="208.4" y1="472.0" x2="208.4" y2="494.0" stroke="#555555" stroke-width="0.6" opacity="0.6"/>
<line x1="234.0" y1="472.0" x2="234.0" y2="494.0" stroke="#555555" stroke-width="0.6" opacity="0.6"/>
<line x1="269.8" y1="472.0" x2="269.8" y2="494.0" stroke="#555555" stroke-width="0.6" opacity="0.6"/>
<rect x="514.0" y="472.0" width="106.0" height="22" fill="#e2e2e2"/>
<rect x="514.0" y="472.0" width="66.5" height="22" fill="#f2a93b"/>
<text x="547.3" y="486.0" font-family="sans-serif" font-size="7" text-anchor="middle" fill="#111111" stroke="white" stroke-width="2" paint-order="stroke">Protein kinase…</text>
<line x1="546.2" y1="472.0" x2="546.2" y2="494.0" stroke="#555555" stroke-width="0.6" opacity="0.6"/>
<line x1="579.1" y1="472.0" x2="579.1" y2="494.0" stroke="#555555" stroke-width="0.6" opacity="0.6"/>
<line x1="299.1" y1="483.0" x2="514.0" y2="483.0" stroke="#999999" stroke-width="1.5" stroke-dasharray="3,2"/>
<text x="660" y="486.5" font-family="sans-serif" font-size="9.5">8-exon deletion (out-of-frame)</text>
<rect x="60.0" y="498.0" width="239.1" height="22" fill="#e2e2e2"/>
<rect x="174.0" y="498.0" width="51.9" height="22" fill="#2878b5"/>
<text x="200.0" y="512.0" font-family="sans-serif" font-size="7" text-anchor="middle" fill="#111111" stroke="white" stroke-width="2" paint-order="stroke">RAS-binding…</text>
<rect x="231.8" y="498.0" width="32.9" height="22" fill="#2878b5"/>
<text x="248.3" y="512.0" font-family="sans-serif" font-size="7" text-anchor="middle" fill="#111111" stroke="white" stroke-width="2" paint-order="stroke">Cystein…</text>
<line x1="60.7" y1="498.0" x2="60.7" y2="520.0" stroke="#555555" stroke-width="0.6" opacity="0.6"/>
<line x1="94.4" y1="498.0" x2="94.4" y2="520.0" stroke="#555555" stroke-width="0.6" opacity="0.6"/>
<line x1="119.2" y1="498.0" x2="119.2" y2="520.0" stroke="#555555" stroke-width="0.6" opacity="0.6"/>
<line x1="183.6" y1="498.0" x2="183.6" y2="520.0" stroke="#555555" stroke-width="0.6" opacity="0.6"/>
<line x1="208.4" y1="498.0" x2="208.4" y2="520.0" stroke="#555555" stroke-width="0.6" opacity="0.6"/>
<line x1="234.0" y1="498.0" x2="234.0" y2="520.0" stroke="#555555" stroke-width="0.6" opacity="0.6"/>
<line x1="269.8" y1="498.0" x2="269.8" y2="520.0" stroke="#555555" stroke-width="0.6" opacity="0.6"/>
<rect x="338.5" y="498.0" width="281.5" height="22" fill="#e2e2e2"/>
<rect x="394.8" y="498.0" width="185.7" height="22" fill="#2878b5"/>
<text x="487.7" y="512.0" font-family="sans-serif" font-size="7" text-anchor="middle" fill="#111111" stroke="white" stroke-width="2" paint-order="stroke">Protein kinase domain</text>
<line x1="347.3" y1="498.0" x2="347.3" y2="520.0" stroke="#555555" stroke-width="0.6" opacity="0.6"/>
<line x1="380.9" y1="498.0" x2="380.9" y2="520.0" stroke="#555555" stroke-width="0.6" opacity="0.6"/>
<line x1="409.5" y1="498.0" x2="409.5" y2="520.0" stroke="#555555" stroke-width="0.6" opacity="0.6"/>
<line x1="429.9" y1="498.0" x2="429.9" y2="520.0" stroke="#555555" stroke-width="0.6" opacity="0.6"/>
<line x1="473.1" y1="498.0" x2="473.1" y2="520.0" stroke="#555555" stroke-width="0.6" opacity="0.6"/>
<line x1="484.8" y1="498.0" x2="484.8" y2="520.0" stroke="#555555" stroke-width="0.6" opacity="0.6"/>
<line x1="514.0" y1="498.0" x2="514.0" y2="520.0" stroke="#555555" stroke-width="0.6" opacity="0.6"/>
<line x1="546.2" y1="498.0" x2="546.2" y2="520.0" stroke="#555555" stroke-width="0.6" opacity="0.6"/>
<line x1="579.1" y1="498.0" x2="579.1" y2="520.0" stroke="#555555" stroke-width="0.6" opacity="0.6"/>
<line x1="299.1" y1="509.0" x2="338.5" y2="509.0" stroke="#999999" stroke-width="1.5" stroke-dasharray="3,2"/>
<text x="660" y="512.5" font-family="sans-serif" font-size="9.5">1-exon deletion (out-of-frame)</text>
<rect x="60.0" y="524.0" width="277.8" height="22" fill="#e2e2e2"/>
<rect x="174.0" y="524.0" width="51.9" height="22" fill="#2878b5"/>
<text x="200.0" y="538.0" font-family="sans-serif" font-size="7" text-anchor="middle" fill="#111111" stroke="white" stroke-width="2" paint-order="stroke">RAS-binding…</text>
<rect x="231.8" y="524.0" width="32.9" height="22" fill="#2878b5"/>
<text x="248.3" y="538.0" font-family="sans-serif" font-size="7" text-anchor="middle" fill="#111111" stroke="white" stroke-width="2" paint-order="stroke">Cystein…</text>
<line x1="60.7" y1="524.0" x2="60.7" y2="546.0" stroke="#555555" stroke-width="0.6" opacity="0.6"/>
<line x1="94.4" y1="524.0" x2="94.4" y2="546.0" stroke="#555555" stroke-width="0.6" opacity="0.6"/>
<line x1="119.2" y1="524.0" x2="119.2" y2="546.0" stroke="#555555" stroke-width="0.6" opacity="0.6"/>
<line x1="183.6" y1="524.0" x2="183.6" y2="546.0" stroke="#555555" stroke-width="0.6" opacity="0.6"/>
<line x1="208.4" y1="524.0" x2="208.4" y2="546.0" stroke="#555555" stroke-width="0.6" opacity="0.6"/>
<line x1="234.0" y1="524.0" x2="234.0" y2="546.0" stroke="#555555" stroke-width="0.6" opacity="0.6"/>
<line x1="269.8" y1="524.0" x2="269.8" y2="546.0" stroke="#555555" stroke-width="0.6" opacity="0.6"/>
<line x1="299.1" y1="524.0" x2="299.1" y2="546.0" stroke="#555555" stroke-width="0.6" opacity="0.6"/>
<rect x="380.2" y="524.0" width="239.8" height="22" fill="#e2e2e2"/>
<rect x="394.8" y="524.0" width="185.7" height="22" fill="#2878b5"/>
<text x="487.7" y="538.0" font-family="sans-serif" font-size="7" text-anchor="middle" fill="#111111" stroke="white" stroke-width="2" paint-order="stroke">Protein kinase domain</text>
<line x1="380.9" y1="524.0" x2="380.9" y2="546.0" stroke="#555555" stroke-width="0.6" opacity="0.6"/>
<line x1="409.5" y1="524.0" x2="409.5" y2="546.0" stroke="#555555" stroke-width="0.6" opacity="0.6"/>
<line x1="429.9" y1="524.0" x2="429.9" y2="546.0" stroke="#555555" stroke-width="0.6" opacity="0.6"/>
<line x1="473.1" y1="524.0" x2="473.1" y2="546.0" stroke="#555555" stroke-width="0.6" opacity="0.6"/>
<line x1="484.8" y1="524.0" x2="484.8" y2="546.0" stroke="#555555" stroke-width="0.6" opacity="0.6"/>
<line x1="514.0" y1="524.0" x2="514.0" y2="546.0" stroke="#555555" stroke-width="0.6" opacity="0.6"/>
<line x1="546.2" y1="524.0" x2="546.2" y2="546.0" stroke="#555555" stroke-width="0.6" opacity="0.6"/>
<line x1="579.1" y1="524.0" x2="579.1" y2="546.0" stroke="#555555" stroke-width="0.6" opacity="0.6"/>
<line x1="337.8" y1="535.0" x2="380.2" y2="535.0" stroke="#999999" stroke-width="1.5" stroke-dasharray="3,2"/>
<text x="660" y="538.5" font-family="sans-serif" font-size="9.5">2-exon deletion (in-frame)</text>
<rect x="60.0" y="550.0" width="287.3" height="22" fill="#e2e2e2"/>
<rect x="174.0" y="550.0" width="51.9" height="22" fill="#2878b5"/>
<text x="200.0" y="564.0" font-family="sans-serif" font-size="7" text-anchor="middle" fill="#111111" stroke="white" stroke-width="2" paint-order="stroke">RAS-binding…</text>
<rect x="231.8" y="550.0" width="32.9" height="22" fill="#2878b5"/>
<text x="248.3" y="564.0" font-family="sans-serif" font-size="7" text-anchor="middle" fill="#111111" stroke="white" stroke-width="2" paint-order="stroke">Cystein…</text>
<line x1="60.7" y1="550.0" x2="60.7" y2="572.0" stroke="#555555" stroke-width="0.6" opacity="0.6"/>
<line x1="94.4" y1="550.0" x2="94.4" y2="572.0" stroke="#555555" stroke-width="0.6" opacity="0.6"/>
<line x1="119.2" y1="550.0" x2="119.2" y2="572.0" stroke="#555555" stroke-width="0.6" opacity="0.6"/>
<line x1="183.6" y1="550.0" x2="183.6" y2="572.0" stroke="#555555" stroke-width="0.6" opacity="0.6"/>
<line x1="208.4" y1="550.0" x2="208.4" y2="572.0" stroke="#555555" stroke-width="0.6" opacity="0.6"/>
<line x1="234.0" y1="550.0" x2="234.0" y2="572.0" stroke="#555555" stroke-width="0.6" opacity="0.6"/>
<line x1="269.8" y1="550.0" x2="269.8" y2="572.0" stroke="#555555" stroke-width="0.6" opacity="0.6"/>
<line x1="299.1" y1="550.0" x2="299.1" y2="572.0" stroke="#555555" stroke-width="0.6" opacity="0.6"/>
<line x1="338.5" y1="550.0" x2="338.5" y2="572.0" stroke="#555555" stroke-width="0.6" opacity="0.6"/>
<rect x="473.1" y="550.0" width="146.9" height="22" fill="#e2e2e2"/>
<rect x="473.1" y="550.0" width="107.5" height="22" fill="#f2a93b"/>
<text x="526.8" y="564.0" font-family="sans-serif" font-size="7" text-anchor="middle" fill="#111111" stroke="white" stroke-width="2" paint-order="stroke">Protein kinase domain</text>
<line x1="484.8" y1="550.0" x2="484.8" y2="572.0" stroke="#555555" stroke-width="0.6" opacity="0.6"/>
<line x1="514.0" y1="550.0" x2="514.0" y2="572.0" stroke="#555555" stroke-width="0.6" opacity="0.6"/>
<line x1="546.2" y1="550.0" x2="546.2" y2="572.0" stroke="#555555" stroke-width="0.6" opacity="0.6"/>
<line x1="579.1" y1="550.0" x2="579.1" y2="572.0" stroke="#555555" stroke-width="0.6" opacity="0.6"/>
<line x1="347.3" y1="561.0" x2="473.1" y2="561.0" stroke="#999999" stroke-width="1.5" stroke-dasharray="3,2"/>
<text x="660" y="564.5" font-family="sans-serif" font-size="9.5">4-exon deletion (out-of-frame)</text>
<line x1="60.0" y1="580.0" x2="620.0" y2="580.0" stroke="#444444" stroke-width="1"/>
<text x="60.0" y="594.0" font-family="sans-serif" font-size="9">1</text>
<text x="620.0" y="594.0" font-family="sans-serif" font-size="9" text-anchor="end">766 aa</text>
<line x1="60.7" y1="598.0" x2="60.7" y2="602.0" stroke="#777777" stroke-width="0.7"/>
<text x="60.7" y="603.0" font-family="sans-serif" font-size="5.5" fill="#666666" transform="rotate(55 60.7 603.0)">E1</text>
<line x1="94.4" y1="598.0" x2="94.4" y2="602.0" stroke="#777777" stroke-width="0.7"/>
<text x="94.4" y="603.0" font-family="sans-serif" font-size="5.5" fill="#666666" transform="rotate(55 94.4 603.0)">E2</text>
<line x1="119.2" y1="598.0" x2="119.2" y2="602.0" stroke="#777777" stroke-width="0.7"/>
<text x="119.2" y="603.0" font-family="sans-serif" font-size="5.5" fill="#666666" transform="rotate(55 119.2 603.0)">E3</text>
<line x1="183.6" y1="598.0" x2="183.6" y2="602.0" stroke="#777777" stroke-width="0.7"/>
<text x="183.6" y="603.0" font-family="sans-serif" font-size="5.5" fill="#666666" transform="rotate(55 183.6 603.0)">E4</text>
<line x1="208.4" y1="598.0" x2="208.4" y2="602.0" stroke="#777777" stroke-width="0.7"/>
<text x="208.4" y="603.0" font-family="sans-serif" font-size="5.5" fill="#666666" transform="rotate(55 208.4 603.0)">E5</text>
<line x1="234.0" y1="598.0" x2="234.0" y2="602.0" stroke="#777777" stroke-width="0.7"/>
<text x="234.0" y="603.0" font-family="sans-serif" font-size="5.5" fill="#666666" transform="rotate(55 234.0 603.0)">E6</text>
<line x1="269.8" y1="598.0" x2="269.8" y2="602.0" stroke="#777777" stroke-width="0.7"/>
<text x="269.8" y="603.0" font-family="sans-serif" font-size="5.5" fill="#666666" transform="rotate(55 269.8 603.0)">E7</text>
<line x1="299.1" y1="598.0" x2="299.1" y2="602.0" stroke="#777777" stroke-width="0.7"/>
<text x="299.1" y="603.0" font-family="sans-serif" font-size="5.5" fill="#666666" transform="rotate(55 299.1 603.0)">E8</text>
<line x1="338.5" y1="598.0" x2="338.5" y2="602.0" stroke="#777777" stroke-width="0.7"/>
<text x="338.5" y="603.0" font-family="sans-serif" font-size="5.5" fill="#666666" transform="rotate(55 338.5 603.0)">E9</text>
<line x1="347.3" y1="598.0" x2="347.3" y2="602.0" stroke="#777777" stroke-width="0.7"/>
<text x="347.3" y="603.0" font-family="sans-serif" font-size="5.5" fill="#666666" transform="rotate(55 347.3 603.0)">E10</text>
<line x1="380.9" y1="598.0" x2="380.9" y2="602.0" stroke="#777777" stroke-width="0.7"/>
<text x="380.9" y="603.0" font-family="sans-serif" font-size="5.5" fill="#666666" transform="rotate(55 380.9 603.0)">E11</text>
<line x1="409.5" y1="598.0" x2="409.5" y2="602.0" stroke="#777777" stroke-width="0.7"/>
<text x="409.5" y="603.0" font-family="sans-serif" font-size="5.5" fill="#666666" transform="rotate(55 409.5 603.0)">E12</text>
<line x1="429.9" y1="598.0" x2="429.9" y2="602.0" stroke="#777777" stroke-width="0.7"/>
<text x="429.9" y="603.0" font-family="sans-serif" font-size="5.5" fill="#666666" transform="rotate(55 429.9 603.0)">E13</text>
<line x1="473.1" y1="598.0" x2="473.1" y2="602.0" stroke="#777777" stroke-width="0.7"/>
<text x="473.1" y="603.0" font-family="sans-serif" font-size="5.5" fill="#666666" transform="rotate(55 473.1 603.0)">E14</text>
<line x1="484.8" y1="598.0" x2="484.8" y2="602.0" stroke="#777777" stroke-width="0.7"/>
<text x="484.8" y="603.0" font-family="sans-serif" font-size="5.5" fill="#666666" transform="rotate(55 484.8 603.0)">E15</text>
<line x1="514.0" y1="598.0" x2="514.0" y2="602.0" stroke="#777777" stroke-width="0.7"/>
<text x="514.0" y="603.0" font-family="sans-serif" font-size="5.5" fill="#666666" transform="rotate(55 514.0 603.0)">E16</text>
<line x1="546.2" y1="598.0" x2="546.2" y2="602.0" stroke="#777777" stroke-width="0.7"/>
<text x="546.2" y="603.0" font-family="sans-serif" font-size="5.5" fill="#666666" transform="rotate(55 546.2 603.0)">E17</text>
<line x1="579.1" y1="598.0" x2="579.1" y2="602.0" stroke="#777777" stroke-width="0.7"/>
<text x="579.1" y="603.0" font-family="sans-serif" font-size="5.5" fill="#666666" transform="rotate(55 579.1 603.0)">E18</text>
<rect x="60.0" y="611.0" width="12" height="10" fill="#2878b5"/>
<text x="76.0" y="620.0" font-family="sans-serif" font-size="9">domain retained</text>
<rect x="227.0" y="611.0" width="12" height="10" fill="#f2a93b"/>
<text x="243.0" y="620.0" font-family="sans-serif" font-size="9">domain truncated</text>
<rect x="403.0" y="611.0" width="12" height="10" fill="#e2e2e2"/>
<text x="419.0" y="620.0" font-family="sans-serif" font-size="9">target backbone (no domain)</text>
<rect x="678.0" y="611.0" width="12" height="10" fill="#d62728"/>
<text x="694.0" y="620.0" font-family="sans-serif" font-size="9">breakpoint</text>
</svg>
