<svg xmlns="http://www.w3.org/2000/svg" width="1000" height="796" viewBox="0 0 1000 796">
<rect width="1000" height="796" fill="white"/>
<text x="60" y="24" font-family="sans-serif" font-size="15">NAB2 fusion-transcript schematic</text>
<text x="60" y="40" font-family="sans-serif" font-size="10" fill="#555">Fusion order varies by row; follow each row's 5' and 3' labels (NAB2 portion is domain-colored, exon ticks)</text>
<rect x="582.7" y="56.0" width="37.3" height="22" fill="#cb684d"/>
<rect x="60.0" y="56.0" width="522.7" height="22" fill="#e2e2e2"/>
<rect x="96.3" y="56.0" width="86.4" height="22" fill="#2878b5"/>
<text x="139.5" y="70.0" font-family="sans-serif" font-size="7" text-anchor="middle" fill="#111111" stroke="white" stroke-width="2" paint-order="stroke">NAB conserved region…</text>
<rect x="273.3" y="56.0" width="177.1" height="22" fill="#2878b5"/>
<text x="361.9" y="70.0" font-family="sans-serif" font-size="7" text-anchor="middle" fill="#111111" stroke="white" stroke-width="2" paint-order="stroke">NAB conserved region 2 (NCD2)</text>
<line x1="61.1" y1="56.0" x2="61.1" y2="78.0" stroke="#555555" stroke-width="0.6" opacity="0.6"/>
<line x1="89.9" y1="56.0" x2="89.9" y2="78.0" stroke="#555555" stroke-width="0.6" opacity="0.6"/>
<line x1="401.3" y1="56.0" x2="401.3" y2="78.0" stroke="#555555" stroke-width="0.6" opacity="0.6"/>
<line x1="448.3" y1="56.0" x2="448.3" y2="78.0" stroke="#555555" stroke-width="0.6" opacity="0.6"/>
<line x1="467.5" y1="56.0" x2="467.5" y2="78.0" stroke="#555555" stroke-width="0.6" opacity="0.6"/>
<line x1="514.4" y1="56.0" x2="514.4" y2="78.0" stroke="#555555" stroke-width="0.6" opacity="0.6"/>
<line x1="582.7" y1="55.0" x2="582.7" y2="79.0" stroke="#d62728" stroke-width="1.6"/>
<text x="64.0" y="70.0" font-family="sans-serif" font-size="8" font-weight="bold" text-anchor="start" fill="#111111" stroke="white" stroke-width="2" paint-order="stroke" data-fusion-end="5-prime" data-block="target">5'</text>
<text x="616.0" y="70.0" font-family="sans-serif" font-size="8" font-weight="bold" text-anchor="end" fill="#111111" stroke="white" stroke-width="2" paint-order="stroke" data-fusion-end="3-prime" data-block="partner">3'</text>
<text x="660" y="70.5" font-family="sans-serif" font-size="9.5">STAT6 (x39) – NAB conserved region 2 (NCD2) retained</text>
<rect x="448.3" y="82.0" width="171.7" height="22" fill="#cb684d"/>
<rect x="60.0" y="82.0" width="388.3" height="22" fill="#e2e2e2"/>
<rect x="96.3" y="82.0" width="86.4" height="22" fill="#2878b5"/>
<text x="139.5" y="96.0" font-family="sans-serif" font-size="7" text-anchor="middle" fill="#111111" stroke="white" stroke-width="2" paint-order="stroke">NAB conserved region…</text>
<rect x="273.3" y="82.0" width="174.9" height="22" fill="#f2a93b"/>
<text x="360.8" y="96.0" font-family="sans-serif" font-size="7" text-anchor="middle" fill="#111111" stroke="white" stroke-width="2" paint-order="stroke">NAB conserved region 2 (NCD2)</text>
<line x1="61.1" y1="82.0" x2="61.1" y2="104.0" stroke="#555555" stroke-width="0.6" opacity="0.6"/>
<line x1="89.9" y1="82.0" x2="89.9" y2="104.0" stroke="#555555" stroke-width="0.6" opacity="0.6"/>
<line x1="401.3" y1="82.0" x2="401.3" y2="104.0" stroke="#555555" stroke-width="0.6" opacity="0.6"/>
<line x1="448.3" y1="81.0" x2="448.3" y2="105.0" stroke="#d62728" stroke-width="1.6"/>
<text x="64.0" y="96.0" font-family="sans-serif" font-size="8" font-weight="bold" text-anchor="start" fill="#111111" stroke="white" stroke-width="2" paint-order="stroke" data-fusion-end="5-prime" data-block="target">5'</text>
<text x="616.0" y="96.0" font-family="sans-serif" font-size="8" font-weight="bold" text-anchor="end" fill="#111111" stroke="white" stroke-width="2" paint-order="stroke" data-fusion-end="3-prime" data-block="partner">3'</text>
<text x="660" y="96.5" font-family="sans-serif" font-size="9.5">STAT6 (x4) – NAB conserved region 2 (NCD2) truncated</text>
<rect x="466.4" y="108.0" width="153.6" height="22" fill="#cb684d"/>
<rect x="60.0" y="108.0" width="406.4" height="22" fill="#e2e2e2"/>
<rect x="96.3" y="108.0" width="86.4" height="22" fill="#2878b5"/>
<text x="139.5" y="122.0" font-family="sans-serif" font-size="7" text-anchor="middle" fill="#111111" stroke="white" stroke-width="2" paint-order="stroke">NAB conserved region…</text>
<rect x="273.3" y="108.0" width="177.1" height="22" fill="#2878b5"/>
<text x="361.9" y="122.0" font-family="sans-serif" font-size="7" text-anchor="middle" fill="#111111" stroke="white" stroke-width="2" paint-order="stroke">NAB conserved region 2 (NCD2)</text>
<line x1="61.1" y1="108.0" x2="61.1" y2="130.0" stroke="#555555" stroke-width="0.6" opacity="0.6"/>
<line x1="89.9" y1="108.0" x2="89.9" y2="130.0" stroke="#555555" stroke-width="0.6" opacity="0.6"/>
<line x1="401.3" y1="108.0" x2="401.3" y2="130.0" stroke="#555555" stroke-width="0.6" opacity="0.6"/>
<line x1="448.3" y1="108.0" x2="448.3" y2="130.0" stroke="#555555" stroke-width="0.6" opacity="0.6"/>
<line x1="466.4" y1="107.0" x2="466.4" y2="131.0" stroke="#d62728" stroke-width="1.6"/>
<text x="64.0" y="122.0" font-family="sans-serif" font-size="8" font-weight="bold" text-anchor="start" fill="#111111" stroke="white" stroke-width="2" paint-order="stroke" data-fusion-end="5-prime" data-block="target">5'</text>
<text x="616.0" y="122.0" font-family="sans-serif" font-size="8" font-weight="bold" text-anchor="end" fill="#111111" stroke="white" stroke-width="2" paint-order="stroke" data-fusion-end="3-prime" data-block="partner">3'</text>
<text x="660" y="122.5" font-family="sans-serif" font-size="9.5">STAT6 (x3) – NAB conserved region 2 (NCD2) retained</text>
<rect x="60.0" y="134.0" width="522.7" height="22" fill="#cb4d60"/>
<rect x="582.7" y="134.0" width="37.3" height="22" fill="#e2e2e2"/>
<line x1="582.7" y1="133.0" x2="582.7" y2="157.0" stroke="#d62728" stroke-width="1.6"/>
<text x="64.0" y="148.0" font-family="sans-serif" font-size="8" font-weight="bold" text-anchor="start" fill="#111111" stroke="white" stroke-width="2" paint-order="stroke" data-fusion-end="5-prime" data-block="partner">5'</text>
<text x="616.0" y="148.0" font-family="sans-serif" font-size="8" font-weight="bold" text-anchor="end" fill="#111111" stroke="white" stroke-width="2" paint-order="stroke" data-fusion-end="3-prime" data-block="target">3'</text>
<text x="660" y="148.5" font-family="sans-serif" font-size="9.5">FMN1 (x3) – NAB conserved region 2 (NCD2) lost</text>
<rect x="400.3" y="160.0" width="219.7" height="22" fill="#cb964d"/>
<rect x="60.0" y="160.0" width="340.3" height="22" fill="#e2e2e2"/>
<rect x="96.3" y="160.0" width="86.4" height="22" fill="#2878b5"/>
<text x="139.5" y="174.0" font-family="sans-serif" font-size="7" text-anchor="middle" fill="#111111" stroke="white" stroke-width="2" paint-order="stroke">NAB conserved region…</text>
<rect x="273.3" y="160.0" width="126.9" height="22" fill="#f2a93b"/>
<text x="336.8" y="174.0" font-family="sans-serif" font-size="7" text-anchor="middle" fill="#111111" stroke="white" stroke-width="2" paint-order="stroke">NAB conserved region 2 (NCD2)</text>
<line x1="61.1" y1="160.0" x2="61.1" y2="182.0" stroke="#555555" stroke-width="0.6" opacity="0.6"/>
<line x1="89.9" y1="160.0" x2="89.9" y2="182.0" stroke="#555555" stroke-width="0.6" opacity="0.6"/>
<line x1="400.3" y1="159.0" x2="400.3" y2="183.0" stroke="#d62728" stroke-width="1.6"/>
<text x="64.0" y="174.0" font-family="sans-serif" font-size="8" font-weight="bold" text-anchor="start" fill="#111111" stroke="white" stroke-width="2" paint-order="stroke" data-fusion-end="5-prime" data-block="target">5'</text>
<text x="616.0" y="174.0" font-family="sans-serif" font-size="8" font-weight="bold" text-anchor="end" fill="#111111" stroke="white" stroke-width="2" paint-order="stroke" data-fusion-end="3-prime" data-block="partner">3'</text>
<text x="660" y="174.5" font-family="sans-serif" font-size="9.5">TMEM117 (x2) – NAB conserved region 2 (NCD2) truncated</text>
<rect x="400.3" y="186.0" width="219.7" height="22" fill="#cb6e4d"/>
<rect x="60.0" y="186.0" width="340.3" height="22" fill="#e2e2e2"/>
<rect x="96.3" y="186.0" width="86.4" height="22" fill="#2878b5"/>
<text x="139.5" y="200.0" font-family="sans-serif" font-size="7" text-anchor="middle" fill="#111111" stroke="white" stroke-width="2" paint-order="stroke">NAB conserved region…</text>
<rect x="273.3" y="186.0" width="126.9" height="22" fill="#f2a93b"/>
<text x="336.8" y="200.0" font-family="sans-serif" font-size="7" text-anchor="middle" fill="#111111" stroke="white" stroke-width="2" paint-order="stroke">NAB conserved region 2 (NCD2)</text>
<line x1="61.1" y1="186.0" x2="61.1" y2="208.0" stroke="#555555" stroke-width="0.6" opacity="0.6"/>
<line x1="89.9" y1="186.0" x2="89.9" y2="208.0" stroke="#555555" stroke-width="0.6" opacity="0.6"/>
<line x1="400.3" y1="185.0" x2="400.3" y2="209.0" stroke="#d62728" stroke-width="1.6"/>
<text x="64.0" y="200.0" font-family="sans-serif" font-size="8" font-weight="bold" text-anchor="start" fill="#111111" stroke="white" stroke-width="2" paint-order="stroke" data-fusion-end="5-prime" data-block="target">5'</text>
<text x="616.0" y="200.0" font-family="sans-serif" font-size="8" font-weight="bold" text-anchor="end" fill="#111111" stroke="white" stroke-width="2" paint-order="stroke" data-fusion-end="3-prime" data-block="partner">3'</text>
<text x="660" y="200.5" font-family="sans-serif" font-size="9.5">KIF5A – NAB conserved region 2 (NCD2) truncated</text>
<rect x="400.3" y="212.0" width="219.7" height="22" fill="#cb684d"/>
<rect x="60.0" y="212.0" width="340.3" height="22" fill="#e2e2e2"/>
<rect x="96.3" y="212.0" width="86.4" height="22" fill="#2878b5"/>
<text x="139.5" y="226.0" font-family="sans-serif" font-size="7" text-anchor="middle" fill="#111111" stroke="white" stroke-width="2" paint-order="stroke">NAB conserved region…</text>
<rect x="273.3" y="212.0" width="126.9" height="22" fill="#f2a93b"/>
<text x="336.8" y="226.0" font-family="sans-serif" font-size="7" text-anchor="middle" fill="#111111" stroke="white" stroke-width="2" paint-order="stroke">NAB conserved region 2 (NCD2)</text>
<line x1="61.1" y1="212.0" x2="61.1" y2="234.0" stroke="#555555" stroke-width="0.6" opacity="0.6"/>
<line x1="89.9" y1="212.0" x2="89.9" y2="234.0" stroke="#555555" stroke-width="0.6" opacity="0.6"/>
<line x1="400.3" y1="211.0" x2="400.3" y2="235.0" stroke="#d62728" stroke-width="1.6"/>
<text x="64.0" y="226.0" font-family="sans-serif" font-size="8" font-weight="bold" text-anchor="start" fill="#111111" stroke="white" stroke-width="2" paint-order="stroke" data-fusion-end="5-prime" data-block="target">5'</text>
<text x="616.0" y="226.0" font-family="sans-serif" font-size="8" font-weight="bold" text-anchor="end" fill="#111111" stroke="white" stroke-width="2" paint-order="stroke" data-fusion-end="3-prime" data-block="partner">3'</text>
<text x="660" y="226.5" font-family="sans-serif" font-size="9.5">STAT6 – NAB conserved region 2 (NCD2) truncated</text>
<rect x="435.5" y="238.0" width="184.5" height="22" fill="#4dc0cb"/>
<rect x="60.0" y="238.0" width="375.5" height="22" fill="#e2e2e2"/>
<rect x="96.3" y="238.0" width="86.4" height="22" fill="#2878b5"/>
<text x="139.5" y="252.0" font-family="sans-serif" font-size="7" text-anchor="middle" fill="#111111" stroke="white" stroke-width="2" paint-order="stroke">NAB conserved region…</text>
<rect x="273.3" y="238.0" width="162.1" height="22" fill="#f2a93b"/>
<text x="354.4" y="252.0" font-family="sans-serif" font-size="7" text-anchor="middle" fill="#111111" stroke="white" stroke-width="2" paint-order="stroke">NAB conserved region 2 (NCD2)</text>
<line x1="61.1" y1="238.0" x2="61.1" y2="260.0" stroke="#555555" stroke-width="0.6" opacity="0.6"/>
<line x1="89.9" y1="238.0" x2="89.9" y2="260.0" stroke="#555555" stroke-width="0.6" opacity="0.6"/>
<line x1="401.3" y1="238.0" x2="401.3" y2="260.0" stroke="#555555" stroke-width="0.6" opacity="0.6"/>
<line x1="435.5" y1="237.0" x2="435.5" y2="261.0" stroke="#d62728" stroke-width="1.6"/>
<text x="64.0" y="252.0" font-family="sans-serif" font-size="8" font-weight="bold" text-anchor="start" fill="#111111" stroke="white" stroke-width="2" paint-order="stroke" data-fusion-end="5-prime" data-block="target">5'</text>
<text x="616.0" y="252.0" font-family="sans-serif" font-size="8" font-weight="bold" text-anchor="end" fill="#111111" stroke="white" stroke-width="2" paint-order="stroke" data-fusion-end="3-prime" data-block="partner">3'</text>
<text x="660" y="252.5" font-family="sans-serif" font-size="9.5">MGAT4C – NAB conserved region 2 (NCD2) truncated</text>
<rect x="60.0" y="264.0" width="388.3" height="22" fill="#b2cb4d"/>
<rect x="448.3" y="264.0" width="171.7" height="22" fill="#e2e2e2"/>
<rect x="448.3" y="264.0" width="2.1" height="22" fill="#f2a93b"/>
<line x1="467.5" y1="264.0" x2="467.5" y2="286.0" stroke="#555555" stroke-width="0.6" opacity="0.6"/>
<line x1="514.4" y1="264.0" x2="514.4" y2="286.0" stroke="#555555" stroke-width="0.6" opacity="0.6"/>
<line x1="582.7" y1="264.0" x2="582.7" y2="286.0" stroke="#555555" stroke-width="0.6" opacity="0.6"/>
<line x1="448.3" y1="263.0" x2="448.3" y2="287.0" stroke="#d62728" stroke-width="1.6"/>
<text x="64.0" y="278.0" font-family="sans-serif" font-size="8" font-weight="bold" text-anchor="start" fill="#111111" stroke="white" stroke-width="2" paint-order="stroke" data-fusion-end="5-prime" data-block="partner">5'</text>
<text x="616.0" y="278.0" font-family="sans-serif" font-size="8" font-weight="bold" text-anchor="end" fill="#111111" stroke="white" stroke-width="2" paint-order="stroke" data-fusion-end="3-prime" data-block="target">3'</text>
<text x="660" y="278.5" font-family="sans-serif" font-size="9.5">CUX2 – NAB conserved region 2 (NCD2) truncated</text>
<rect x="60.0" y="290.0" width="388.3" height="22" fill="#814dcb"/>
<rect x="448.3" y="290.0" width="171.7" height="22" fill="#e2e2e2"/>
<rect x="448.3" y="290.0" width="2.1" height="22" fill="#f2a93b"/>
<line x1="467.5" y1="290.0" x2="467.5" y2="312.0" stroke="#555555" stroke-width="0.6" opacity="0.6"/>
<line x1="514.4" y1="290.0" x2="514.4" y2="312.0" stroke="#555555" stroke-width="0.6" opacity="0.6"/>
<line x1="582.7" y1="290.0" x2="582.7" y2="312.0" stroke="#555555" stroke-width="0.6" opacity="0.6"/>
<line x1="448.3" y1="289.0" x2="448.3" y2="313.0" stroke="#d62728" stroke-width="1.6"/>
<text x="64.0" y="304.0" font-family="sans-serif" font-size="8" font-weight="bold" text-anchor="start" fill="#111111" stroke="white" stroke-width="2" paint-order="stroke" data-fusion-end="5-prime" data-block="partner">5'</text>
<text x="616.0" y="304.0" font-family="sans-serif" font-size="8" font-weight="bold" text-anchor="end" fill="#111111" stroke="white" stroke-width="2" paint-order="stroke" data-fusion-end="3-prime" data-block="target">3'</text>
<text x="660" y="304.5" font-family="sans-serif" font-size="9.5">LRP1 – NAB conserved region 2 (NCD2) truncated</text>
<rect x="60.0" y="316.0" width="388.3" height="22" fill="#4dc0cb"/>
<rect x="448.3" y="316.0" width="171.7" height="22" fill="#e2e2e2"/>
<rect x="448.3" y="316.0" width="2.1" height="22" fill="#f2a93b"/>
<line x1="467.5" y1="316.0" x2="467.5" y2="338.0" stroke="#555555" stroke-width="0.6" opacity="0.6"/>
<line x1="514.4" y1="316.0" x2="514.4" y2="338.0" stroke="#555555" stroke-width="0.6" opacity="0.6"/>
<line x1="582.7" y1="316.0" x2="582.7" y2="338.0" stroke="#555555" stroke-width="0.6" opacity="0.6"/>
<line x1="448.3" y1="315.0" x2="448.3" y2="339.0" stroke="#d62728" stroke-width="1.6"/>
<text x="64.0" y="330.0" font-family="sans-serif" font-size="8" font-weight="bold" text-anchor="start" fill="#111111" stroke="white" stroke-width="2" paint-order="stroke" data-fusion-end="5-prime" data-block="partner">5'</text>
<text x="616.0" y="330.0" font-family="sans-serif" font-size="8" font-weight="bold" text-anchor="end" fill="#111111" stroke="white" stroke-width="2" paint-order="stroke" data-fusion-end="3-prime" data-block="target">3'</text>
<text x="660" y="330.5" font-family="sans-serif" font-size="9.5">MGAT4C – NAB conserved region 2 (NCD2) truncated</text>
<rect x="60.0" y="342.0" width="388.3" height="22" fill="#4dcb96"/>
<rect x="448.3" y="342.0" width="171.7" height="22" fill="#e2e2e2"/>
<rect x="448.3" y="342.0" width="2.1" height="22" fill="#f2a93b"/>
<line x1="467.5" y1="342.0" x2="467.5" y2="364.0" stroke="#555555" stroke-width="0.6" opacity="0.6"/>
<line x1="514.4" y1="342.0" x2="514.4" y2="364.0" stroke="#555555" stroke-width="0.6" opacity="0.6"/>
<line x1="582.7" y1="342.0" x2="582.7" y2="364.0" stroke="#555555" stroke-width="0.6" opacity="0.6"/>
<line x1="448.3" y1="341.0" x2="448.3" y2="365.0" stroke="#d62728" stroke-width="1.6"/>
<text x="64.0" y="356.0" font-family="sans-serif" font-size="8" font-weight="bold" text-anchor="start" fill="#111111" stroke="white" stroke-width="2" paint-order="stroke" data-fusion-end="5-prime" data-block="partner">5'</text>
<text x="616.0" y="356.0" font-family="sans-serif" font-size="8" font-weight="bold" text-anchor="end" fill="#111111" stroke="white" stroke-width="2" paint-order="stroke" data-fusion-end="3-prime" data-block="target">3'</text>
<text x="660" y="356.5" font-family="sans-serif" font-size="9.5">PDZRN4 – NAB conserved region 2 (NCD2) truncated</text>
<rect x="60.0" y="368.0" width="396.8" height="22" fill="#814dcb"/>
<rect x="456.8" y="368.0" width="163.2" height="22" fill="#e2e2e2"/>
<line x1="467.5" y1="368.0" x2="467.5" y2="390.0" stroke="#555555" stroke-width="0.6" opacity="0.6"/>
<line x1="514.4" y1="368.0" x2="514.4" y2="390.0" stroke="#555555" stroke-width="0.6" opacity="0.6"/>
<line x1="582.7" y1="368.0" x2="582.7" y2="390.0" stroke="#555555" stroke-width="0.6" opacity="0.6"/>
<line x1="456.8" y1="367.0" x2="456.8" y2="391.0" stroke="#d62728" stroke-width="1.6"/>
<text x="64.0" y="382.0" font-family="sans-serif" font-size="8" font-weight="bold" text-anchor="start" fill="#111111" stroke="white" stroke-width="2" paint-order="stroke" data-fusion-end="5-prime" data-block="partner">5'</text>
<text x="616.0" y="382.0" font-family="sans-serif" font-size="8" font-weight="bold" text-anchor="end" fill="#111111" stroke="white" stroke-width="2" paint-order="stroke" data-fusion-end="3-prime" data-block="target">3'</text>
<text x="660" y="382.5" font-family="sans-serif" font-size="9.5">LRP1 – NAB conserved region 2 (NCD2) lost</text>
<rect x="60.0" y="394.0" width="407.5" height="22" fill="#c94dcb"/>
<rect x="467.5" y="394.0" width="152.5" height="22" fill="#e2e2e2"/>
<line x1="514.4" y1="394.0" x2="514.4" y2="416.0" stroke="#555555" stroke-width="0.6" opacity="0.6"/>
<line x1="582.7" y1="394.0" x2="582.7" y2="416.0" stroke="#555555" stroke-width="0.6" opacity="0.6"/>
<line x1="467.5" y1="393.0" x2="467.5" y2="417.0" stroke="#d62728" stroke-width="1.6"/>
<text x="64.0" y="408.0" font-family="sans-serif" font-size="8" font-weight="bold" text-anchor="start" fill="#111111" stroke="white" stroke-width="2" paint-order="stroke" data-fusion-end="5-prime" data-block="partner">5'</text>
<text x="616.0" y="408.0" font-family="sans-serif" font-size="8" font-weight="bold" text-anchor="end" fill="#111111" stroke="white" stroke-width="2" paint-order="stroke" data-fusion-end="3-prime" data-block="target">3'</text>
<text x="660" y="408.5" font-family="sans-serif" font-size="9.5">KRT6A – NAB conserved region 2 (NCD2) lost</text>
<rect x="486.7" y="420.0" width="133.3" height="22" fill="#cb684d"/>
<rect x="60.0" y="420.0" width="426.7" height="22" fill="#e2e2e2"/>
<rect x="96.3" y="420.0" width="86.4" height="22" fill="#2878b5"/>
<text x="139.5" y="434.0" font-family="sans-serif" font-size="7" text-anchor="middle" fill="#111111" stroke="white" stroke-width="2" paint-order="stroke">NAB conserved region…</text>
<rect x="273.3" y="420.0" width="177.1" height="22" fill="#2878b5"/>
<text x="361.9" y="434.0" font-family="sans-serif" font-size="7" text-anchor="middle" fill="#111111" stroke="white" stroke-width="2" paint-order="stroke">NAB conserved region 2 (NCD2)</text>
<line x1="61.1" y1="420.0" x2="61.1" y2="442.0" stroke="#555555" stroke-width="0.6" opacity="0.6"/>
<line x1="89.9" y1="420.0" x2="89.9" y2="442.0" stroke="#555555" stroke-width="0.6" opacity="0.6"/>
<line x1="401.3" y1="420.0" x2="401.3" y2="442.0" stroke="#555555" stroke-width="0.6" opacity="0.6"/>
<line x1="448.3" y1="420.0" x2="448.3" y2="442.0" stroke="#555555" stroke-width="0.6" opacity="0.6"/>
<line x1="467.5" y1="420.0" x2="467.5" y2="442.0" stroke="#555555" stroke-width="0.6" opacity="0.6"/>
<line x1="486.7" y1="419.0" x2="486.7" y2="443.0" stroke="#d62728" stroke-width="1.6"/>
<text x="64.0" y="434.0" font-family="sans-serif" font-size="8" font-weight="bold" text-anchor="start" fill="#111111" stroke="white" stroke-width="2" paint-order="stroke" data-fusion-end="5-prime" data-block="target">5'</text>
<text x="616.0" y="434.0" font-family="sans-serif" font-size="8" font-weight="bold" text-anchor="end" fill="#111111" stroke="white" stroke-width="2" paint-order="stroke" data-fusion-end="3-prime" data-block="partner">3'</text>
<text x="660" y="434.5" font-family="sans-serif" font-size="9.5">STAT6 – NAB conserved region 2 (NCD2) retained</text>
<rect x="60.0" y="446.0" width="454.4" height="22" fill="#814dcb"/>
<rect x="514.4" y="446.0" width="105.6" height="22" fill="#e2e2e2"/>
<line x1="582.7" y1="446.0" x2="582.7" y2="468.0" stroke="#555555" stroke-width="0.6" opacity="0.6"/>
<line x1="514.4" y1="445.0" x2="514.4" y2="469.0" stroke="#d62728" stroke-width="1.6"/>
<text x="64.0" y="460.0" font-family="sans-serif" font-size="8" font-weight="bold" text-anchor="start" fill="#111111" stroke="white" stroke-width="2" paint-order="stroke" data-fusion-end="5-prime" data-block="partner">5'</text>
<text x="616.0" y="460.0" font-family="sans-serif" font-size="8" font-weight="bold" text-anchor="end" fill="#111111" stroke="white" stroke-width="2" paint-order="stroke" data-fusion-end="3-prime" data-block="target">3'</text>
<text x="660" y="460.5" font-family="sans-serif" font-size="9.5">LRP1 – NAB conserved region 2 (NCD2) lost</text>
<rect x="522.9" y="472.0" width="97.1" height="22" fill="#cb684d"/>
<rect x="60.0" y="472.0" width="462.9" height="22" fill="#e2e2e2"/>
<rect x="96.3" y="472.0" width="86.4" height="22" fill="#2878b5"/>
<text x="139.5" y="486.0" font-family="sans-serif" font-size="7" text-anchor="middle" fill="#111111" stroke="white" stroke-width="2" paint-order="stroke">NAB conserved region…</text>
<rect x="273.3" y="472.0" width="177.1" height="22" fill="#2878b5"/>
<text x="361.9" y="486.0" font-family="sans-serif" font-size="7" text-anchor="middle" fill="#111111" stroke="white" stroke-width="2" paint-order="stroke">NAB conserved region 2 (NCD2)</text>
<line x1="61.1" y1="472.0" x2="61.1" y2="494.0" stroke="#555555" stroke-width="0.6" opacity="0.6"/>
<line x1="89.9" y1="472.0" x2="89.9" y2="494.0" stroke="#555555" stroke-width="0.6" opacity="0.6"/>
<line x1="401.3" y1="472.0" x2="401.3" y2="494.0" stroke="#555555" stroke-width="0.6" opacity="0.6"/>
<line x1="448.3" y1="472.0" x2="448.3" y2="494.0" stroke="#555555" stroke-width="0.6" opacity="0.6"/>
<line x1="467.5" y1="472.0" x2="467.5" y2="494.0" stroke="#555555" stroke-width="0.6" opacity="0.6"/>
<line x1="514.4" y1="472.0" x2="514.4" y2="494.0" stroke="#555555" stroke-width="0.6" opacity="0.6"/>
<line x1="522.9" y1="471.0" x2="522.9" y2="495.0" stroke="#d62728" stroke-width="1.6"/>
<text x="64.0" y="486.0" font-family="sans-serif" font-size="8" font-weight="bold" text-anchor="start" fill="#111111" stroke="white" stroke-width="2" paint-order="stroke" data-fusion-end="5-prime" data-block="target">5'</text>
<text x="616.0" y="486.0" font-family="sans-serif" font-size="8" font-weight="bold" text-anchor="end" fill="#111111" stroke="white" stroke-width="2" paint-order="stroke" data-fusion-end="3-prime" data-block="partner">3'</text>
<text x="660" y="486.5" font-family="sans-serif" font-size="9.5">STAT6 – NAB conserved region 2 (NCD2) retained</text>
<rect x="582.7" y="498.0" width="37.3" height="22" fill="#9d4dcb"/>
<rect x="60.0" y="498.0" width="522.7" height="22" fill="#e2e2e2"/>
<rect x="96.3" y="498.0" width="86.4" height="22" fill="#2878b5"/>
<text x="139.5" y="512.0" font-family="sans-serif" font-size="7" text-anchor="middle" fill="#111111" stroke="white" stroke-width="2" paint-order="stroke">NAB conserved region…</text>
<rect x="273.3" y="498.0" width="177.1" height="22" fill="#2878b5"/>
<text x="361.9" y="512.0" font-family="sans-serif" font-size="7" text-anchor="middle" fill="#111111" stroke="white" stroke-width="2" paint-order="stroke">NAB conserved region 2 (NCD2)</text>
<line x1="61.1" y1="498.0" x2="61.1" y2="520.0" stroke="#555555" stroke-width="0.6" opacity="0.6"/>
<line x1="89.9" y1="498.0" x2="89.9" y2="520.0" stroke="#555555" stroke-width="0.6" opacity="0.6"/>
<line x1="401.3" y1="498.0" x2="401.3" y2="520.0" stroke="#555555" stroke-width="0.6" opacity="0.6"/>
<line x1="448.3" y1="498.0" x2="448.3" y2="520.0" stroke="#555555" stroke-width="0.6" opacity="0.6"/>
<line x1="467.5" y1="498.0" x2="467.5" y2="520.0" stroke="#555555" stroke-width="0.6" opacity="0.6"/>
<line x1="514.4" y1="498.0" x2="514.4" y2="520.0" stroke="#555555" stroke-width="0.6" opacity="0.6"/>
<line x1="582.7" y1="497.0" x2="582.7" y2="521.0" stroke="#d62728" stroke-width="1.6"/>
<text x="64.0" y="512.0" font-family="sans-serif" font-size="8" font-weight="bold" text-anchor="start" fill="#111111" stroke="white" stroke-width="2" paint-order="stroke" data-fusion-end="5-prime" data-block="target">5'</text>
<text x="616.0" y="512.0" font-family="sans-serif" font-size="8" font-weight="bold" text-anchor="end" fill="#111111" stroke="white" stroke-width="2" paint-order="stroke" data-fusion-end="3-prime" data-block="partner">3'</text>
<text x="660" y="512.5" font-family="sans-serif" font-size="9.5">DLGAP2 – NAB conserved region 2 (NCD2) retained</text>
<rect x="60.0" y="524.0" width="522.7" height="22" fill="#cbc94d"/>
<rect x="582.7" y="524.0" width="37.3" height="22" fill="#e2e2e2"/>
<line x1="582.7" y1="523.0" x2="582.7" y2="547.0" stroke="#d62728" stroke-width="1.6"/>
<text x="64.0" y="538.0" font-family="sans-serif" font-size="8" font-weight="bold" text-anchor="start" fill="#111111" stroke="white" stroke-width="2" paint-order="stroke" data-fusion-end="5-prime" data-block="partner">5'</text>
<text x="616.0" y="538.0" font-family="sans-serif" font-size="8" font-weight="bold" text-anchor="end" fill="#111111" stroke="white" stroke-width="2" paint-order="stroke" data-fusion-end="3-prime" data-block="target">3'</text>
<text x="660" y="538.5" font-family="sans-serif" font-size="9.5">FAM186A – NAB conserved region 2 (NCD2) lost</text>
<rect x="595.5" y="550.0" width="24.5" height="22" fill="#cb684d"/>
<rect x="60.0" y="550.0" width="535.5" height="22" fill="#e2e2e2"/>
<rect x="96.3" y="550.0" width="86.4" height="22" fill="#2878b5"/>
<text x="139.5" y="564.0" font-family="sans-serif" font-size="7" text-anchor="middle" fill="#111111" stroke="white" stroke-width="2" paint-order="stroke">NAB conserved region…</text>
<rect x="273.3" y="550.0" width="177.1" height="22" fill="#2878b5"/>
<text x="361.9" y="564.0" font-family="sans-serif" font-size="7" text-anchor="middle" fill="#111111" stroke="white" stroke-width="2" paint-order="stroke">NAB conserved region 2 (NCD2)</text>
<line x1="61.1" y1="550.0" x2="61.1" y2="572.0" stroke="#555555" stroke-width="0.6" opacity="0.6"/>
<line x1="89.9" y1="550.0" x2="89.9" y2="572.0" stroke="#555555" stroke-width="0.6" opacity="0.6"/>
<line x1="401.3" y1="550.0" x2="401.3" y2="572.0" stroke="#555555" stroke-width="0.6" opacity="0.6"/>
<line x1="448.3" y1="550.0" x2="448.3" y2="572.0" stroke="#555555" stroke-width="0.6" opacity="0.6"/>
<line x1="467.5" y1="550.0" x2="467.5" y2="572.0" stroke="#555555" stroke-width="0.6" opacity="0.6"/>
<line x1="514.4" y1="550.0" x2="514.4" y2="572.0" stroke="#555555" stroke-width="0.6" opacity="0.6"/>
<line x1="582.7" y1="550.0" x2="582.7" y2="572.0" stroke="#555555" stroke-width="0.6" opacity="0.6"/>
<line x1="595.5" y1="549.0" x2="595.5" y2="573.0" stroke="#d62728" stroke-width="1.6"/>
<text x="64.0" y="564.0" font-family="sans-serif" font-size="8" font-weight="bold" text-anchor="start" fill="#111111" stroke="white" stroke-width="2" paint-order="stroke" data-fusion-end="5-prime" data-block="target">5'</text>
<text x="616.0" y="564.0" font-family="sans-serif" font-size="8" font-weight="bold" text-anchor="end" fill="#111111" stroke="white" stroke-width="2" paint-order="stroke" data-fusion-end="3-prime" data-block="partner">3'</text>
<text x="660" y="564.5" font-family="sans-serif" font-size="9.5">STAT6 – NAB conserved region 2 (NCD2) retained</text>
<rect x="601.9" y="576.0" width="18.1" height="22" fill="#cb684d"/>
<rect x="60.0" y="576.0" width="541.9" height="22" fill="#e2e2e2"/>
<rect x="96.3" y="576.0" width="86.4" height="22" fill="#2878b5"/>
<text x="139.5" y="590.0" font-family="sans-serif" font-size="7" text-anchor="middle" fill="#111111" stroke="white" stroke-width="2" paint-order="stroke">NAB conserved region…</text>
<rect x="273.3" y="576.0" width="177.1" height="22" fill="#2878b5"/>
<text x="361.9" y="590.0" font-family="sans-serif" font-size="7" text-anchor="middle" fill="#111111" stroke="white" stroke-width="2" paint-order="stroke">NAB conserved region 2 (NCD2)</text>
<line x1="61.1" y1="576.0" x2="61.1" y2="598.0" stroke="#555555" stroke-width="0.6" opacity="0.6"/>
<line x1="89.9" y1="576.0" x2="89.9" y2="598.0" stroke="#555555" stroke-width="0.6" opacity="0.6"/>
<line x1="401.3" y1="576.0" x2="401.3" y2="598.0" stroke="#555555" stroke-width="0.6" opacity="0.6"/>
<line x1="448.3" y1="576.0" x2="448.3" y2="598.0" stroke="#555555" stroke-width="0.6" opacity="0.6"/>
<line x1="467.5" y1="576.0" x2="467.5" y2="598.0" stroke="#555555" stroke-width="0.6" opacity="0.6"/>
<line x1="514.4" y1="576.0" x2="514.4" y2="598.0" stroke="#555555" stroke-width="0.6" opacity="0.6"/>
<line x1="582.7" y1="576.0" x2="582.7" y2="598.0" stroke="#555555" stroke-width="0.6" opacity="0.6"/>
<line x1="601.9" y1="575.0" x2="601.9" y2="599.0" stroke="#d62728" stroke-width="1.6"/>
<text x="64.0" y="590.0" font-family="sans-serif" font-size="8" font-weight="bold" text-anchor="start" fill="#111111" stroke="white" stroke-width="2" paint-order="stroke" data-fusion-end="5-prime" data-block="target">5'</text>
<text x="616.0" y="590.0" font-family="sans-serif" font-size="8" font-weight="bold" text-anchor="end" fill="#111111" stroke="white" stroke-width="2" paint-order="stroke" data-fusion-end="3-prime" data-block="partner">3'</text>
<text x="660" y="590.5" font-family="sans-serif" font-size="9.5">STAT6 – NAB conserved region 2 (NCD2) retained</text>
<rect x="604.0" y="602.0" width="16.0" height="22" fill="#cb684d"/>
<rect x="60.0" y="602.0" width="544.0" height="22" fill="#e2e2e2"/>
<rect x="96.3" y="602.0" width="86.4" height="22" fill="#2878b5"/>
<text x="139.5" y="616.0" font-family="sans-serif" font-size="7" text-anchor="middle" fill="#111111" stroke="white" stroke-width="2" paint-order="stroke">NAB conserved region…</text>
<rect x="273.3" y="602.0" width="177.1" height="22" fill="#2878b5"/>
<text x="361.9" y="616.0" font-family="sans-serif" font-size="7" text-anchor="middle" fill="#111111" stroke="white" stroke-width="2" paint-order="stroke">NAB conserved region 2 (NCD2)</text>
<line x1="61.1" y1="602.0" x2="61.1" y2="624.0" stroke="#555555" stroke-width="0.6" opacity="0.6"/>
<line x1="89.9" y1="602.0" x2="89.9" y2="624.0" stroke="#555555" stroke-width="0.6" opacity="0.6"/>
<line x1="401.3" y1="602.0" x2="401.3" y2="624.0" stroke="#555555" stroke-width="0.6" opacity="0.6"/>
<line x1="448.3" y1="602.0" x2="448.3" y2="624.0" stroke="#555555" stroke-width="0.6" opacity="0.6"/>
<line x1="467.5" y1="602.0" x2="467.5" y2="624.0" stroke="#555555" stroke-width="0.6" opacity="0.6"/>
<line x1="514.4" y1="602.0" x2="514.4" y2="624.0" stroke="#555555" stroke-width="0.6" opacity="0.6"/>
<line x1="582.7" y1="602.0" x2="582.7" y2="624.0" stroke="#555555" stroke-width="0.6" opacity="0.6"/>
<line x1="604.0" y1="601.0" x2="604.0" y2="625.0" stroke="#d62728" stroke-width="1.6"/>
<text x="64.0" y="616.0" font-family="sans-serif" font-size="8" font-weight="bold" text-anchor="start" fill="#111111" stroke="white" stroke-width="2" paint-order="stroke" data-fusion-end="5-prime" data-block="target">5'</text>
<text x="616.0" y="616.0" font-family="sans-serif" font-size="8" font-weight="bold" text-anchor="end" fill="#111111" stroke="white" stroke-width="2" paint-order="stroke" data-fusion-end="3-prime" data-block="partner">3'</text>
<text x="660" y="616.5" font-family="sans-serif" font-size="9.5">STAT6 – NAB conserved region 2 (NCD2) retained</text>
<rect x="60.0" y="628.0" width="545.1" height="22" fill="#cb4d8e"/>
<rect x="605.1" y="628.0" width="14.9" height="22" fill="#e2e2e2"/>
<line x1="605.1" y1="627.0" x2="605.1" y2="651.0" stroke="#d62728" stroke-width="1.6"/>
<text x="64.0" y="642.0" font-family="sans-serif" font-size="8" font-weight="bold" text-anchor="start" fill="#111111" stroke="white" stroke-width="2" paint-order="stroke" data-fusion-end="5-prime" data-block="partner">5'</text>
<text x="616.0" y="642.0" font-family="sans-serif" font-size="8" font-weight="bold" text-anchor="end" fill="#111111" stroke="white" stroke-width="2" paint-order="stroke" data-fusion-end="3-prime" data-block="target">3'</text>
<text x="660" y="642.5" font-family="sans-serif" font-size="9.5">LGR5 – NAB conserved region 2 (NCD2) lost</text>
<rect x="615.7" y="654.0" width="4.3" height="22" fill="#cb684d"/>
<rect x="60.0" y="654.0" width="555.7" height="22" fill="#e2e2e2"/>
<rect x="96.3" y="654.0" width="86.4" height="22" fill="#2878b5"/>
<text x="139.5" y="668.0" font-family="sans-serif" font-size="7" text-anchor="middle" fill="#111111" stroke="white" stroke-width="2" paint-order="stroke">NAB conserved region…</text>
<rect x="273.3" y="654.0" width="177.1" height="22" fill="#2878b5"/>
<text x="361.9" y="668.0" font-family="sans-serif" font-size="7" text-anchor="middle" fill="#111111" stroke="white" stroke-width="2" paint-order="stroke">NAB conserved region 2 (NCD2)</text>
<line x1="61.1" y1="654.0" x2="61.1" y2="676.0" stroke="#555555" stroke-width="0.6" opacity="0.6"/>
<line x1="89.9" y1="654.0" x2="89.9" y2="676.0" stroke="#555555" stroke-width="0.6" opacity="0.6"/>
<line x1="401.3" y1="654.0" x2="401.3" y2="676.0" stroke="#555555" stroke-width="0.6" opacity="0.6"/>
<line x1="448.3" y1="654.0" x2="448.3" y2="676.0" stroke="#555555" stroke-width="0.6" opacity="0.6"/>
<line x1="467.5" y1="654.0" x2="467.5" y2="676.0" stroke="#555555" stroke-width="0.6" opacity="0.6"/>
<line x1="514.4" y1="654.0" x2="514.4" y2="676.0" stroke="#555555" stroke-width="0.6" opacity="0.6"/>
<line x1="582.7" y1="654.0" x2="582.7" y2="676.0" stroke="#555555" stroke-width="0.6" opacity="0.6"/>
<line x1="615.7" y1="653.0" x2="615.7" y2="677.0" stroke="#d62728" stroke-width="1.6"/>
<text x="64.0" y="668.0" font-family="sans-serif" font-size="8" font-weight="bold" text-anchor="start" fill="#111111" stroke="white" stroke-width="2" paint-order="stroke" data-fusion-end="5-prime" data-block="target">5'</text>
<text x="616.0" y="668.0" font-family="sans-serif" font-size="8" font-weight="bold" text-anchor="end" fill="#111111" stroke="white" stroke-width="2" paint-order="stroke" data-fusion-end="3-prime" data-block="partner">3'</text>
<text x="660" y="668.5" font-family="sans-serif" font-size="9.5">STAT6 – NAB conserved region 2 (NCD2) retained</text>
<rect x="60.0" y="680.0" width="560.0" height="22" fill="#cb834d"/>
<rect x="620.0" y="680.0" width="0.5" height="22" fill="#e2e2e2"/>
<line x1="620.0" y1="679.0" x2="620.0" y2="703.0" stroke="#d62728" stroke-width="1.6"/>
<text x="64.0" y="694.0" font-family="sans-serif" font-size="8" font-weight="bold" text-anchor="start" fill="#111111" stroke="white" stroke-width="2" paint-order="stroke" data-fusion-end="5-prime" data-block="partner">5'</text>
<text x="616.0" y="694.0" font-family="sans-serif" font-size="8" font-weight="bold" text-anchor="end" fill="#111111" stroke="white" stroke-width="2" paint-order="stroke" data-fusion-end="3-prime" data-block="target">3'</text>
<text x="660" y="694.5" font-family="sans-serif" font-size="9.5">MTOR – NAB conserved region 2 (NCD2) lost</text>
<line x1="60.0" y1="710.0" x2="620.0" y2="710.0" stroke="#444444" stroke-width="1"/>
<text x="60.0" y="705.0" font-family="sans-serif" font-size="8" data-axis-end="5-prime" text-anchor="start">5' / N-terminus</text>
<text x="620.0" y="705.0" font-family="sans-serif" font-size="8" data-axis-end="3-prime" text-anchor="end">3' / C-terminus</text>
<text x="60.0" y="724.0" font-family="sans-serif" font-size="9">1</text>
<text x="620.0" y="724.0" font-family="sans-serif" font-size="9" text-anchor="end">525 aa</text>
<line x1="61.1" y1="728.0" x2="61.1" y2="732.0" stroke="#777777" stroke-width="0.7"/>
<text x="61.1" y="733.0" font-family="sans-serif" font-size="5.5" fill="#666666" transform="rotate(55 61.1 733.0)">E1</text>
<line x1="89.9" y1="728.0" x2="89.9" y2="732.0" stroke="#777777" stroke-width="0.7"/>
<text x="89.9" y="733.0" font-family="sans-serif" font-size="5.5" fill="#666666" transform="rotate(55 89.9 733.0)">E2</text>
<line x1="401.3" y1="728.0" x2="401.3" y2="732.0" stroke="#777777" stroke-width="0.7"/>
<text x="401.3" y="733.0" font-family="sans-serif" font-size="5.5" fill="#666666" transform="rotate(55 401.3 733.0)">E3</text>
<line x1="448.3" y1="728.0" x2="448.3" y2="732.0" stroke="#777777" stroke-width="0.7"/>
<text x="448.3" y="733.0" font-family="sans-serif" font-size="5.5" fill="#666666" transform="rotate(55 448.3 733.0)">E4</text>
<line x1="467.5" y1="728.0" x2="467.5" y2="732.0" stroke="#777777" stroke-width="0.7"/>
<text x="467.5" y="733.0" font-family="sans-serif" font-size="5.5" fill="#666666" transform="rotate(55 467.5 733.0)">E5</text>
<line x1="514.4" y1="728.0" x2="514.4" y2="732.0" stroke="#777777" stroke-width="0.7"/>
<text x="514.4" y="733.0" font-family="sans-serif" font-size="5.5" fill="#666666" transform="rotate(55 514.4 733.0)">E6</text>
<line x1="582.7" y1="728.0" x2="582.7" y2="732.0" stroke="#777777" stroke-width="0.7"/>
<text x="582.7" y="733.0" font-family="sans-serif" font-size="5.5" fill="#666666" transform="rotate(55 582.7 733.0)">E7</text>
<rect x="60.0" y="741.0" width="12" height="10" fill="#2878b5"/>
<text x="76.0" y="750.0" font-family="sans-serif" font-size="9">domain retained</text>
<rect x="227.0" y="741.0" width="12" height="10" fill="#f2a93b"/>
<text x="243.0" y="750.0" font-family="sans-serif" font-size="9">domain truncated</text>
<rect x="403.0" y="741.0" width="12" height="10" fill="#e2e2e2"/>
<text x="419.0" y="750.0" font-family="sans-serif" font-size="9">target backbone (no domain)</text>
<rect x="678.0" y="741.0" width="12" height="10" fill="#d62728"/>
<text x="694.0" y="750.0" font-family="sans-serif" font-size="9">breakpoint</text>
</svg>
