<svg xmlns="http://www.w3.org/2000/svg" width="920" height="184" viewBox="0 0 920 184">
<rect width="920" height="184" fill="white"/>
<text x="60" y="28" font-family="sans-serif" font-size="16">CDKN2B domain-retention track</text>
<rect x="373.0" y="34.0" width="463.8" height="16.0" fill="#62b36f" opacity="0.55"/>
<text x="373.0" y="46.0" font-family="sans-serif" font-size="9.5">Ankyrin repeats (3 copies) (54-134)</text>
<line x1="60.0" y1="63.0" x2="860.0" y2="63.0" stroke="#444" stroke-width="4"/>
<circle cx="494.8" cy="71.0" r="3" fill="#f2a93b" stroke="none" stroke-width="0"/>
<circle cx="460.0" cy="78.0" r="3" fill="#f2a93b" stroke="none" stroke-width="0"/>
<circle cx="361.4" cy="85.0" r="3" fill="#777777" stroke="none" stroke-width="0"/>
<circle cx="715.1" cy="92.0" r="3" fill="#f2a93b" stroke="none" stroke-width="0"/>
<circle cx="361.4" cy="99.0" r="3" fill="#777777" stroke="none" stroke-width="0"/>
<circle cx="720.9" cy="71.0" r="3" fill="#f2a93b" stroke="none" stroke-width="0"/>
<circle cx="280.3" cy="78.0" r="3" fill="#777777" stroke="none" stroke-width="0"/>
<circle cx="361.4" cy="85.0" r="3" fill="#2878b5" stroke="none" stroke-width="0"/>
<circle cx="483.2" cy="92.0" r="3" fill="#f2a93b" stroke="none" stroke-width="0"/>
<circle cx="361.4" cy="99.0" r="3" fill="#2878b5" stroke="none" stroke-width="0"/>
<line x1="60.0" y1="114.0" x2="860.0" y2="114.0" stroke="#444444" stroke-width="1"/>
<line x1="60.0" y1="114.0" x2="60.0" y2="119.0" stroke="#444444" stroke-width="1"/>
<text x="60.0" y="129.0" font-family="sans-serif" font-size="8" text-anchor="start">0</text>
<line x1="639.7" y1="114.0" x2="639.7" y2="119.0" stroke="#444444" stroke-width="1"/>
<text x="639.7" y="129.0" font-family="sans-serif" font-size="8" text-anchor="middle">100</text>
<line x1="860.0" y1="114.0" x2="860.0" y2="119.0" stroke="#444444" stroke-width="1"/>
<text x="860.0" y="129.0" font-family="sans-serif" font-size="8" text-anchor="end">138</text>
<line x1="65.8" y1="134.0" x2="65.8" y2="138.0" stroke="#777777" stroke-width="0.7"/>
<text x="65.8" y="139.0" font-family="sans-serif" font-size="5.5" fill="#666666" transform="rotate(55 65.8 139.0)">E1</text>
<line x1="367.2" y1="134.0" x2="367.2" y2="138.0" stroke="#777777" stroke-width="0.7"/>
<text x="367.2" y="139.0" font-family="sans-serif" font-size="5.5" fill="#666666" transform="rotate(55 367.2 139.0)">E2</text>
<circle cx="60" cy="169.0" r="4" fill="#2878b5"/><text x="70" y="174.0" font-family="sans-serif" font-size="12">fully retained</text>
<circle cx="180" cy="169.0" r="4" fill="#f2a93b"/><text x="190" y="174.0" font-family="sans-serif" font-size="12">truncated</text>
<circle cx="275" cy="169.0" r="4" fill="#777777"/><text x="285" y="174.0" font-family="sans-serif" font-size="12">fully lost</text>
<circle cx="365" cy="169.0" r="4" fill="white" stroke="#d62728" stroke-width="1.5"/><text x="375" y="174.0" font-family="sans-serif" font-size="12">reference discrepancy</text>
</svg>
